<svg width="1776" height="288" viewBox="0 0 1776 288" fill="none" xmlns="http://www.w3.org/2000/svg">
<mask id="path-1-inside-1_343_3003" fill="white">
<path d="M3.8147e-05 12H1.1346V52H3.8147e-05V12Z"/>
<path d="M1774.87 13H1776V53H1774.87V13Z"/>
<path d="M1761.25 2.09808e-05V1.00004L14.7494 1.00002V0L1761.25 2.09808e-05Z"/>
<path d="M1776 276H1774.87V236H1776V276Z"/>
<path d="M1.13457 275H3.8147e-06L0 235H1.13456L1.13457 275Z"/>
<path d="M14.7493 288V287H1761.25V288H14.7493Z"/>
</mask>
<path d="M3.8147e-05 12H1.1346V52H3.8147e-05V12Z" fill="#ECECEC"/>
<path d="M1774.87 13H1776V53H1774.87V13Z" fill="#ECECEC"/>
<path d="M1761.25 2.09808e-05V1.00004L14.7494 1.00002V0L1761.25 2.09808e-05Z" fill="#ECECEC"/>
<path d="M1776 276H1774.87V236H1776V276Z" fill="#ECECEC"/>
<path d="M1.13457 275H3.8147e-06L0 235H1.13456L1.13457 275Z" fill="#ECECEC"/>
<path d="M14.7493 288V287H1761.25V288H14.7493Z" fill="#ECECEC"/>
<path d="M3.8147e-05 12V11H-0.999962V12H3.8147e-05ZM1.1346 12H2.1346V11H1.1346V12ZM1.1346 52V53H2.1346V52H1.1346ZM3.8147e-05 52H-0.999962V53H3.8147e-05V52ZM1774.87 13V12H1773.87V13H1774.87ZM1776 13H1777V12H1776V13ZM1776 53V54H1777V53H1776ZM1774.87 53H1773.87V54H1774.87V53ZM1761.25 2.09808e-05H1762.25V-0.999979H1761.25V2.09808e-05ZM1761.25 1.00004V2.00004H1762.25V1.00004H1761.25ZM14.7494 1.00002H13.7494V2.00002H14.7494V1.00002ZM14.7494 0V-1H13.7494V0H14.7494ZM1776 276V277H1777V276H1776ZM1774.87 276H1773.87V277H1774.87V276ZM1774.87 236V235H1773.87V236H1774.87ZM1776 236H1777V235H1776V236ZM1.13457 275V276H2.13457V275H1.13457ZM3.8147e-06 275H-0.999996L-0.999996 276H3.8147e-06V275ZM0 235V234H-1L-1 235H0ZM1.13456 235H2.13456V234H1.13456V235ZM14.7493 288H13.7493V289H14.7493V288ZM14.7493 287V286H13.7493V287H14.7493ZM1761.25 287H1762.25V286H1761.25V287ZM1761.25 288V289H1762.25V288H1761.25ZM3.8147e-05 13H1.1346V11H3.8147e-05V13ZM0.134603 12V52H2.1346V12H0.134603ZM1.1346 51H3.8147e-05V53H1.1346V51ZM1.00004 52V12H-0.999962V52H1.00004ZM1774.87 14H1776V12H1774.87V14ZM1775 13V53H1777V13H1775ZM1776 52H1774.87V54H1776V52ZM1775.87 53V13H1773.87V53H1775.87ZM1760.25 2.09808e-05V1.00004H1762.25V2.09808e-05H1760.25ZM1761.25 4.14848e-05L14.7494 2.0504e-05V2.00002L1761.25 2.00004V4.14848e-05ZM15.7494 1.00002V0H13.7494V1.00002H15.7494ZM14.7494 1L1761.25 1.00002V-0.999979L14.7494 -1V1ZM1776 275H1774.87V277H1776V275ZM1775.87 276V236H1773.87V276H1775.87ZM1774.87 237H1776V235H1774.87V237ZM1775 236V276H1777V236H1775ZM1.13457 274H3.8147e-06V276H1.13457V274ZM1 275L1 235H-1L-0.999996 275H1ZM0 236H1.13456V234H0V236ZM0.134563 235L0.134567 275H2.13457L2.13456 235H0.134563ZM15.7493 288V287H13.7493V288H15.7493ZM14.7493 288H1761.25V286H14.7493V288ZM1760.25 287V288H1762.25V287H1760.25ZM1761.25 287H14.7493V289H1761.25V287Z" fill="#ECECEC" mask="url(#path-1-inside-1_343_3003)"/>
</svg>
