<svg width="580" height="400" viewBox="0 0 580 400" fill="none" xmlns="http://www.w3.org/2000/svg">
<path d="M272.993 317.518C344.347 317.518 402.19 260.328 402.19 189.781C402.19 119.234 344.347 62.0437 272.993 62.0437C201.639 62.0437 143.796 119.234 143.796 189.781C143.796 260.328 201.639 317.518 272.993 317.518Z" fill="url(#paint0_linear_506_2)"/>
<path d="M202.251 82.6392C187.727 92.1754 175.305 104.52 165.734 118.928L275.912 211.678V281.022L402.117 174.838C399.953 155.735 393.456 137.36 383.111 121.084L275.912 209.489V143.065L202.251 82.6392Z" fill="url(#paint1_radial_506_2)"/>
<path d="M165.461 118.976C151.334 139.948 143.795 164.583 143.795 189.781C143.794 260.329 201.638 317.519 272.992 317.519C344.346 317.519 402.19 260.329 402.189 189.781C402.19 184.818 401.898 179.859 401.314 174.929L275.183 279.561L276.642 210.217L165.461 118.976Z" fill="url(#paint2_radial_506_2)"/>
<path d="M75.3763 368.322C78.7407 368.322 81.1737 367.846 82.6751 366.893C84.2878 365.856 85.0942 364.353 85.0942 362.384C85.0942 360.457 84.2878 358.986 82.6751 357.97C81.2015 357.017 78.7685 356.541 75.3763 356.541H65.9504V368.322H75.3763ZM76.5441 376.642H49.8931V329.231H96.9808V338.472H65.9504V347.3H76.5441C84.4129 347.3 90.5856 348.538 95.0622 351.015C99.1218 353.259 101.152 356.922 101.152 362.003C101.152 367.042 99.1218 370.683 95.0622 372.927C90.5856 375.404 84.4129 376.642 76.5441 376.642V376.642Z" fill="#636163"/>
<path d="M144.306 367.275H121.727L118.164 375.912H103.649L124.39 328.501H141.605L162.346 375.912H147.831L144.306 367.275ZM125.328 358.478H140.668L133.016 339.615L125.328 358.478Z" fill="#636163"/>
<path d="M209.306 367.401H226.182V329.231H239.202V376.642H166.391V329.231H179.411V367.401H196.286V329.231H209.306V367.401Z" fill="#636163"/>
<path d="M250.272 329.231H265.285V347.3H287.433V329.231H302.445V376.642H287.433V356.541H265.285V376.642H250.272V329.231Z" fill="#636163"/>
<path d="M309.832 329.231H350.666V338.472H324.963V347.3H349.134V356.541H324.963V367.401H351.531V376.642H309.832V329.231Z" fill="#636163"/>
<path d="M371.288 352.749C371.288 356.56 372.273 359.317 374.242 361.019C376.238 362.721 379.384 363.75 383.682 364.106V341.353C379.384 341.709 376.238 342.751 374.242 344.479C372.273 346.181 371.288 348.938 371.288 352.749ZM410.85 352.749C410.85 348.938 409.852 346.181 407.857 344.479C405.887 342.751 402.753 341.709 398.455 341.353V364.106C402.753 363.75 405.887 362.721 407.857 361.019C409.852 359.317 410.85 356.56 410.85 352.749ZM383.682 324.851H398.455V330.492C407.844 331.254 414.789 333.375 419.291 336.856C423.819 340.337 426.083 345.635 426.083 352.749C426.083 359.863 423.819 365.161 419.291 368.641C414.789 372.097 407.844 374.206 398.455 374.968V381.752H383.682V374.968C374.294 374.206 367.335 372.097 362.808 368.641C358.28 365.161 356.016 359.863 356.016 352.749C356.016 345.635 358.28 340.337 362.808 336.856C367.335 333.375 374.294 331.254 383.682 330.492V324.851Z" fill="#636163"/>
<path d="M424.219 329.231H472.619V338.472H455.207V376.642H441.665V338.472H424.219V329.231Z" fill="#636163"/>
<path d="M504.013 368.322C507.233 368.322 509.562 367.846 511 366.893C512.544 365.856 513.315 364.353 513.315 362.384C513.315 360.457 512.544 358.986 511 357.97C509.589 357.017 507.26 356.541 504.013 356.541H494.99V368.322H504.013ZM528.687 362.003C528.687 367.042 526.744 370.683 522.858 372.927C518.572 375.404 512.663 376.642 505.131 376.642H479.618V329.231H494.99V347.3H505.131C512.663 347.3 518.572 348.538 522.858 351.015C526.744 353.259 528.687 356.922 528.687 362.003V362.003Z" fill="#636163"/>
<defs>
<linearGradient id="paint0_linear_506_2" x1="316.789" y1="97.8101" x2="278.103" y2="193.431" gradientUnits="userSpaceOnUse">
<stop stop-color="#DB2F7B"/>
<stop offset="1" stop-color="#9B2978"/>
</linearGradient>
<radialGradient id="paint1_radial_506_2" cx="0" cy="0" r="1" gradientUnits="userSpaceOnUse" gradientTransform="translate(272.993 193.431) rotate(-42.1001) scale(181.61 116.316)">
<stop stop-color="#FCFEFA"/>
<stop offset="1" stop-color="#D6D7D6"/>
</radialGradient>
<radialGradient id="paint2_radial_506_2" cx="0" cy="0" r="1" gradientUnits="userSpaceOnUse" gradientTransform="translate(267.883 213.139) rotate(-179.334) scale(125.556 99.2715)">
<stop stop-color="#7BB631"/>
<stop offset="1" stop-color="#027E40"/>
</radialGradient>
</defs>
</svg>
