<?xml version="1.0" encoding="utf-8"?>
<!-- Generator: Adobe Illustrator 19.2.1, SVG Export Plug-In . SVG Version: 6.00 Build 0)  -->
<svg version="1.1" id="layer" xmlns="http://www.w3.org/2000/svg" xmlns:xlink="http://www.w3.org/1999/xlink" x="0px" y="0px"
	 viewBox="0 0 652 652" style="enable-background:new 0 0 652 652;" xml:space="preserve">
<g>
	<path d="M65.5,394.1H21v-146h40.7c21.7,0,29.3,1.5,38.4,7.2c11,7,16.5,16.5,16.5,28.7c0,15.6-8.9,27.2-25.1,31.8
		c24.3,5.9,31,22.4,31,36.9C122.5,381.6,102.4,394.1,65.5,394.1 M79.2,269.6c-2.9-1-6.7-1.7-13.7-1.7H44.7v39.9h22.8
		c8.9,0,13.3-0.6,17.9-5.5c4.4-4.6,5.7-10.8,5.7-14.5C91,279.3,86.2,272.2,79.2,269.6 M82,329.1c-3.6-1.1-6.5-1.3-13.5-1.3H45.1V374
		h24c18.6,0,26.6-10.5,26.6-23.6C95.7,340.1,90,331.4,82,329.1 M318.9,349.8c0-21.9-14.8-35.5-35.9-41.6l-17.3-5.1
		c-14.4-4.2-19.4-8.9-19.4-17.9c0-12,9.5-19.8,23.8-19.8c11.6,0,20.9,3.2,34.4,11.2l11-17.1c-12.9-9.1-29.5-13.9-46.2-13.9
		c-29.3,0-49.6,17.5-49.6,43.2c0,8.4,2.1,15.4,6.1,21.3c5.5,8.2,15,13.7,28.3,17.5l15.6,4.4c15,4.2,21.7,11,21.7,21.7
		c0,14.5-10.7,23.2-28.7,23.2c-14.8,0-26.4-4.4-39.4-12l-9.3,18.6c14.3,8.7,31.2,13.1,47.9,13.1C299.3,396.6,318.9,374,318.9,349.8
		 M523.3,394.1v-146h-24.5v58.6h-51.9v-58.6h-24v146h24v-67.5h51.9v67.5H523.3z M146.5,412.3l66.4-182.5h-16.8l-66.4,182.5H146.5z
		 M342.5,412.3l66.4-182.5h-16.8l-66.4,182.5H342.5z M554.6,412.3L621,229.9h-16.8l-66.4,182.5H554.6z"/>
</g>
</svg>
