<?xml version="1.0" encoding="UTF-8" standalone="no"?>
<!-- Created with Inkscape (http://www.inkscape.org/) -->

<svg
   xmlns:dc="http://purl.org/dc/elements/1.1/"
   xmlns:cc="http://creativecommons.org/ns#"
   xmlns:rdf="http://www.w3.org/1999/02/22-rdf-syntax-ns#"
   xmlns:svg="http://www.w3.org/2000/svg"
   xmlns="http://www.w3.org/2000/svg"
   xmlns:sodipodi="http://sodipodi.sourceforge.net/DTD/sodipodi-0.dtd"
   xmlns:inkscape="http://www.inkscape.org/namespaces/inkscape"
   id="svg2985"
   version="1.1"
   inkscape:version="0.48.5 r10040"
   width="1000"
   height="218.01625"
   xml:space="preserve"
   sodipodi:docname="A.svg"><metadata
     id="metadata2991"><rdf:RDF><cc:Work
         rdf:about=""><dc:format>image/svg+xml</dc:format><dc:type
           rdf:resource="http://purl.org/dc/dcmitype/StillImage" /><dc:title></dc:title></cc:Work></rdf:RDF></metadata><defs
     id="defs2989"><clipPath
       clipPathUnits="userSpaceOnUse"
       id="clipPath3023"><path
         d="m 493.362,692.78 68.898,0 0,86.747 -68.898,0 0,-86.747 z"
         id="path3025"
         inkscape:connector-curvature="0" /></clipPath><clipPath
       clipPathUnits="userSpaceOnUse"
       id="clipPath3215"><path
         d="m 0,0 595.276,0 0,779.528 L 0,779.528 0,0 z"
         id="path3217"
         inkscape:connector-curvature="0" /></clipPath><clipPath
       clipPathUnits="userSpaceOnUse"
       id="clipPath3237"><path
         d="m 0,0 595.276,0 0,779.528 L 0,779.528 0,0 z"
         id="path3239"
         inkscape:connector-curvature="0" /></clipPath><clipPath
       clipPathUnits="userSpaceOnUse"
       id="clipPath3285"><path
         d="m 34.332,34.016 526.927,0 0,489.222 -526.927,0 0,-489.222 z"
         id="path3287"
         inkscape:connector-curvature="0" /></clipPath></defs><sodipodi:namedview
     pagecolor="#ffffff"
     bordercolor="#666666"
     borderopacity="1"
     objecttolerance="10"
     gridtolerance="10"
     guidetolerance="10"
     inkscape:pageopacity="0"
     inkscape:pageshadow="2"
     inkscape:window-width="1035"
     inkscape:window-height="1039"
     id="namedview2987"
     showgrid="false"
     fit-margin-left="0.5"
     fit-margin-bottom="0.5"
     fit-margin-top="0.5"
     fit-margin-right="0.5"
     inkscape:zoom="0.39830193"
     inkscape:cx="604.49072"
     inkscape:cy="-140.13247"
     inkscape:window-x="878"
     inkscape:window-y="-21"
     inkscape:window-maximized="0"
     inkscape:current-layer="g2993" /><g
     id="g2993"
     inkscape:groupmode="layer"
     inkscape:label="j4678_explore_36(1)_web"
     transform="matrix(1.25,0,0,-1.25,-776.68964,1706.8271)"><path
       inkscape:connector-curvature="0"
       d="m 1154.5258,1250.4779 c 11.6444,-2.3922 17.5167,-9.48 17.5167,-18.122 0,-9.5839 -7.436,-19.4196 -22.915,-19.4196 -15.6032,0 -22.215,8.8805 -24.0668,15.5967 -0.2795,1.3641 0.5101,2.7601 1.8715,3.1515 l 10.0487,2.2139 c 0.6172,0.1011 1.2465,-0.2876 1.4259,-0.9254 0.8183,-4.2031 4.252,-7.8088 10.5982,-7.8088 5.2765,0 7.8135,2.765 7.8135,5.8819 0,2.635 -1.8183,4.802 -6.3552,5.7471 l -7.8183,1.8124 c -11.3936,2.5099 -16.5444,9.3544 -16.5444,17.6285 0,10.5556 9.3512,19.32 22.07,19.32 14.6761,0 20.8338,-8.1441 22.6345,-14.4482 0.2492,-1.3369 -0.5042,-2.6952 -1.855,-3.1105 l -8.5648,-1.9365 c -1.6016,-0.346 -2.5009,0.4952 -3.0174,1.8263 -1.1532,2.848 -3.817,5.557 -9.0812,5.557 -4.1898,0 -7.551,-2.5205 -7.551,-5.8722 0,-2.8906 2.1553,-4.6865 5.4005,-5.293 l 8.3896,-1.7991 z m 194.5682,34.9109 c 0,-9.0786 -7.3717,-16.4438 -16.4481,-16.4438 -9.077,0 -16.4406,7.3652 -16.4406,16.4438 0,9.0871 7.3636,16.4449 16.4406,16.4449 9.0764,0 16.4481,-7.3578 16.4481,-16.4449 z m -1.0687,24.3521 c -15.2511,0 -27.6361,12.376 -27.6361,27.6575 0,15.2783 12.385,27.6633 27.6361,27.6633 15.289,0 27.6863,-12.385 27.6863,-27.6633 0,-15.2815 -12.3973,-27.6575 -27.6863,-27.6575 z m 57.8142,36.3037 c 8.3369,0 15.1122,-6.7566 15.1122,-15.1196 0,-8.3401 -6.7753,-15.1095 -15.1122,-15.1095 -8.3417,0 -15.1185,6.7694 -15.1185,15.1095 0,8.363 6.7768,15.1196 15.1185,15.1196 z m -20.0404,-35.4784 c 15.9263,0 28.8139,-12.8845 28.8139,-28.8193 0,-15.8975 -12.8876,-28.7852 -28.8139,-28.7852 -15.8922,0 -28.7921,12.8877 -28.7921,28.7852 0,15.9348 12.8999,28.8193 28.7921,28.8193 z m -62.9517,-101.9075 c 4.1312,0 7.4802,-3.3522 7.4802,-7.4888 0,-4.1327 -3.349,-7.477 -7.4802,-7.477 -4.1381,0 -7.4861,3.3443 -7.4861,7.477 0,4.1366 3.348,7.4888 7.4861,7.4888 z m 21.69,49.1961 c 11.9595,0 21.6808,-9.7015 21.6808,-21.6893 0,-11.9655 -9.7212,-21.6825 -21.6808,-21.6825 -11.9911,0 -21.6926,9.717 -21.6926,21.6825 0,11.9878 9.7015,21.6893 21.6926,21.6893 z m -36.4779,-61.5055 0,118.807 c -0.4222,18.1535 -11.3734,33.7001 -26.9903,40.7773 -5.1811,2.2474 -10.7792,3.6903 -16.5972,3.9997 -28.8287,1.5259 -51.0932,-15.5233 -57.0342,-38.532 -3.8649,-14.0122 -0.8763,-30.8537 8.7709,-45.0064 11.8355,-17.3793 60.511,-63.456 84.0075,-83.9852 0.8119,-0.5942 1.8049,-0.961 2.8948,-0.961 2.7181,0 4.9139,2.1883 4.9485,4.9006 z m -10.1525,54.5524 c 0,-4.8132 -3.9033,-8.7282 -8.7208,-8.7282 -4.8298,0 -8.7293,3.915 -8.7293,8.7282 0,4.8101 3.8995,8.7235 8.7293,8.7235 4.8175,0 8.7208,-3.9134 8.7208,-8.7235 z m -167.2408,37.8255 c -0.4712,-1.0457 -8.9183,-17.7488 -8.9183,-17.7488 -0.2796,-0.5218 -0.8966,-0.894 -1.4067,-0.894 l -5.3323,0 c -0.5496,0 -0.9915,0.4419 -0.9915,0.9935 0,0.085 0.011,0.1704 0.032,0.2503 l 5.3291,11.9202 c -4.2318,1.0521 -7.4089,4.8691 -7.4089,9.4119 0,5.3398 4.3847,9.726 9.7244,9.726 5.4485,0 9.8316,-4.3862 9.8316,-9.726 0,-1.8518 -0.3882,-2.8842 -0.8573,-3.9331 z m -196.99338,-61.1558 c -8.41571,0 -14.64576,6.2396 -14.64576,16.7894 0,10.5587 6.47923,16.5641 14.64576,16.5641 8.15481,0 14.51318,-5.8819 14.51318,-16.4406 0,-10.6733 -6.35837,-16.9129 -14.51318,-16.9129 z m 14.19638,40.4381 c -1.74799,3.1105 -6.54579,7.1932 -16.60087,7.1932 -16.67701,0 -28.30918,-13.567 -28.30918,-30.8419 0,-17.8697 11.98198,-31.0673 28.79103,-31.0673 7.91416,0 13.9094,3.6031 16.54763,8.2757 0.016,-1.938 0.26569,-4.8526 0.44512,-5.8483 0.0905,-0.5111 0.85722,-1.001 1.45462,-1.001 l 10.68123,0 c 1.50786,0 2.72874,1.2316 2.72874,2.7245 l 0,81.4268 c 0,1.5062 -1.22088,2.7239 -2.72874,2.7239 l -10.28243,0 c -1.50308,0 -2.72715,-1.2177 -2.72715,-2.7239 l 0,-30.8617 z m 56.777,-40.4381 c -8.41889,0 -14.64734,6.2396 -14.64734,16.7894 0,10.5587 6.47923,16.5641 14.64734,16.5641 8.1516,0 14.5116,-5.8819 14.5116,-16.4406 0,-10.6733 -6.36,-16.9129 -14.5116,-16.9129 z m 14.1964,40.4381 c -1.7507,3.1105 -6.5506,7.1932 -16.6003,7.1932 -16.67758,0 -28.31294,-13.567 -28.31294,-30.8419 0,-17.8697 11.98517,-31.0673 28.79104,-31.0673 7.9147,0 13.911,3.6031 16.5476,8.2757 0.016,-1.938 0.2673,-4.8526 0.4451,-5.8483 0.09,-0.5111 0.8573,-1.001 1.4584,-1.001 l 10.6796,0 c 1.5047,0 2.7256,1.2316 2.7256,2.7245 l 0,81.4268 c 0,1.5062 -1.2209,2.7239 -2.7256,2.7239 l -10.283,0 c -1.5046,0 -2.7255,-1.2177 -2.7255,-2.7239 l 0,-30.8617 z m -167.0523,-17.0428 c 0.36366,5.4048 4.91547,11.6348 13.19274,11.6348 9.12172,0 12.96113,-5.7562 13.19966,-11.6348 l -26.3924,0 z m 12.95421,24.5906 c -15.11697,0 -29.0237,-12.2295 -29.0237,-31.073 0,-19.9132 14.26719,-31.548 30.46182,-31.548 13.53349,0 22.49282,7.3892 26.08784,16.6365 0.39667,1.0835 -0.16932,2.2443 -1.25123,2.6399 l -9.21703,2.7846 c -0.98394,0.197 -2.27617,-0.091 -2.8496,-1.2315 -2.16276,-4.2744 -6.10174,-7.1555 -12.64593,-7.1555 -7.91628,0 -14.51638,5.6354 -14.87843,13.434 l 39.71185,0 c 1.48338,0 2.61374,1.1862 2.69254,2.6851 0.0373,0.7118 0.0676,1.4594 0.0676,2.2453 0,18.9521 -10.91657,30.5826 -29.15575,30.5826 z m 241.13459,-4.4991 -34.7027,-77.041 c -0.8088,-1.4158 -2.5594,-2.5685 -4.013,-2.5685 l -11.4793,0 c -1.4914,0 -2.0467,1.207 -1.3418,2.724 l 12.6806,27.9971 -23.7499,48.8565 c -0.8541,1.5036 -0.2987,2.7319 1.1894,2.7319 l 12.3383,0 c 1.4987,0 3.4048,-1.2283 4.2531,-2.7154 l 14.4828,-31.8424 13.3801,31.8488 c 0.845,1.4807 2.7527,2.7016 4.2303,2.7122 l 11.5607,0 c 1.4765,0 1.8855,-1.1474 1.1714,-2.7032 z m -373.87501,3.1739 c 1.32045,0 2.51577,-0.1118 3.71855,-0.229 l 0,-16.0737 c -1.80071,0.362 -3.36554,0.4792 -4.80099,0.4792 -8.15162,0 -15.2389,-3.9651 -15.2389,-16.6808 l 0,-24.2977 c -0.0213,-1.485 -1.23472,-2.7059 -2.72288,-2.7059 l -10.50766,0 c -1.48976,0 -2.70159,1.2209 -2.72395,2.7059 l 0,53.6851 c 0.0479,1.452 1.25708,2.6441 2.72395,2.6441 l 10.19671,0 c 1.41575,-0.091 2.54612,-1.2571 2.54612,-2.6984 l 0,-6.0586 c 3.60886,7.7986 11.77379,9.2309 16.80905,9.2309 z m 69.75252,-12.4787 -13.44351,0 0,23.6471 13.44351,0 c 8.39601,0 13.31627,-4.6785 13.31627,-11.8824 0,-6.9712 -4.92026,-11.7647 -13.31627,-11.7647 z m 12.11189,-12.2221 c 11.15191,3.2287 18.12631,12.2221 18.12631,24.0954 0,14.7789 -10.55611,26.1603 -27.12504,26.1603 l -30.50654,0 c -1.50627,0 -2.72608,-1.2316 -2.72608,-2.7256 l 0,-79.617 c 0,-1.5062 1.21981,-2.7245 2.72608,-2.7245 l 11.22432,0 c 1.50041,0 2.72555,1.2348 2.72555,2.7245 l 0,30.0343 8.63613,0 15.34326,-30.0343 c 0.7731,-1.5062 2.62491,-2.7245 4.12799,-2.7245 l 12.9164,0 c 1.48657,0 2.1026,1.2348 1.346,2.7245 l -16.81438,32.0869 z m -70.36695,-13.7944 c 6.12303,0 11.04169,-4.9235 11.04169,-10.9257 0,-5.992 -4.91866,-10.9229 -11.04169,-10.9229 -5.99951,0 -10.91337,4.9309 -10.91337,10.9229 0,6.0022 4.91386,10.9257 10.91337,10.9257 z m -96.86797,-5.6737 -8.32839,0 0,54.3672 8.46097,0 c 13.91259,0 25.43295,-8.7597 25.43295,-27.2304 0,-18.4884 -11.63536,-27.1368 -25.56553,-27.1368 z m 0.71826,69.736 -22.87139,0 c -1.4855,0 -2.72874,-1.239 -2.72874,-2.7271 l 0,-79.625 c 0,-1.5089 1.24324,-2.724 2.72874,-2.724 l 22.75053,0 c 24.24667,0 42.13924,15.5877 42.13924,42.4769 0,26.8742 -17.76904,42.5992 -42.01838,42.5992"
       style="fill:#5b3e95;fill-opacity:1;fill-rule:nonzero;stroke:none"
       id="path8588" /></g></svg>