<?xml version="1.0" encoding="utf-8"?>
<!-- Generator: Adobe Illustrator 19.0.0, SVG Export Plug-In . SVG Version: 6.00 Build 0)  -->
<svg version="1.1" id="layer" xmlns="http://www.w3.org/2000/svg" xmlns:xlink="http://www.w3.org/1999/xlink" x="0px" y="0px"
	 viewBox="-153 -46 652 652" style="enable-background:new -153 -46 652 652;" xml:space="preserve">
<style type="text/css">
	.st0{fill:#004394;}
	.st1{fill:#E20015;}
	.st2{fill:#FFFFFF;}
</style>
<g id="layer1" transform="translate(-58.8258,-485.80127)">
	<path id="path1838" class="st0" d="M527.5,682.2c-4.8,2.3-12,5-20.5,7.7v124.8c-34.8,20.2-98.2,33.4-160.5,33.4
		c-79.7,0-120.5-6.5-160.5-13.4c-58.4-10.2-114.5-16.1-150-16.1c-24.9,0-54.7,3-77,7.4v26.5c19.7-4.2,43-8.9,79.7-8.9
		c39.9,0,106.2,9.9,164.6,19.8c45.1,7.7,88.3,10.3,127.5,10.3c119.4,0,172.1-29.1,196.8-42.3L527.5,682.2L527.5,682.2z"/>
	<path id="path1846" class="st1" d="M-72.3,670.4c19.5-13.1,80.6-22.7,97.5-22.7c58.8,0,105.6,6.7,156.6,17.2
		c45.7,9.5,99,14.4,169,14.4c65.6,0,125.1-18.8,147.3-29.1v159.2c-31.8,18.3-98.3,30.6-157.8,30.6c-71.6,0-115.4-6.8-160.6-14.4
		c-58.4-10-108-14.8-148-14.8c-36.5,0-86.7,7.1-104.3,16C-72.3,827.9-72.3,670.4-72.3,670.4"/>
	<path id="path1874" class="st2" d="M383.1,711c-7.4,0-15.4,3.8-21.1,8.2c0-0.1-0.1-0.3-0.1-0.4c0-3.1-1.3-6.1-4.8-6.1h-15.6
		c-0.4,6.9-0.7,11.7-4,31.9c-4.4,26.5-5.7,32.5-7.4,38.9h23.4c0.5-7.1,1.4-14.1,2.5-21.1l4.9-31.5c3.3-3.8,7-6.6,12.3-6.6
		c4.6,0,7.8,2.1,7.8,7c0,1-0.1,2-0.3,2.9l-5.1,28.4c-0.6,3.6-1.5,7.5-1.5,11.1c0,7.7,4.2,10.1,11.5,10.1c2.9,0,6.4,0,9.3-0.4
		c-0.1-0.8-0.6-2-0.6-2.8c0-4,0.4-8,1-12l6.4-34.8c0.4-2.3,0.6-4.5,0.6-6.9C402.5,715.6,393.3,711,383.1,711 M458.6,711
		c-7.4,0-15.4,3.8-21.1,8.2c0-0.1,0.1-0.4,0.1-0.6c0-3.1-1.4-6-5-6H417c-0.4,6.9-0.4,8-4,32.4c-3.7,24.4-5.6,31.3-7.3,38.3H429
		c0.5-7.1,1.4-14.1,2.5-21.1l4.9-31.5c3.3-3.8,7-6.6,12.3-6.6c4.6,0,7.8,2.1,7.8,7c0,1-0.1,2-0.3,2.9l-5.1,28.4
		c-0.6,3.6-1.5,7.5-1.5,11.1c0,7.7,4.2,10.1,11.5,10.1c2.9,0,6.6-0.1,9.5-0.5c-0.1-0.8-0.5-1.9-0.5-2.7c0-4,0.2-8,0.9-12l6.4-34.8
		c0.4-2.3,0.6-4.5,0.6-6.9C478,715.6,469,711,458.6,711 M233.6,710.7c-7.6,0-16.9,3.7-22.5,8.9c-2.3-6.3-8.6-8.9-14.9-8.9
		c-7.3,0-16.1,3.9-21.7,8.5c0-0.1,0.1-0.3,0.1-0.4c0.1-3.1-1.3-6.1-4.8-6.1h-15.6c-0.3,8.5-1.2,13-4,30.8
		c-3.6,22.8-6.3,36.2-8.1,39.9h22.8c0.2-6.7,1.1-13.3,2.3-19.9l6.6-34.3c2.6-2.7,6.9-5.3,10.8-5.3c3.4,0,6.7,2.3,6.7,5.9
		c0,3.5-0.8,7.7-1.3,11.2c-2.3,14.4-5.4,28-8.1,42.4l21.7,0.1c0.4-6.7,1.2-13.3,2.3-19.9l6.5-34.1c2.6-2.8,6.2-5.2,10.1-5.2
		c3.5,0,6.9,2.3,6.9,6c0,1.1,0,2.3-0.2,3.4l-5.9,33.4c-0.4,2.3-0.5,4.7-0.5,7c0,7.8,4.5,10,11.6,10c3,0,6.2,0,9.2-0.4
		c-0.2-0.8-0.4-2.1-0.4-2.9c0-4,0.5-7.7,1-11.7l5.1-29.2c0.7-4.4,1.8-8.8,1.8-13.3C251.1,716.1,243.4,710.7,233.6,710.7
		 M147.9,712.2c-2.2-1-2.5-1.3-5-1.3c-9.1,0-13,5.2-18.9,10.8c0.6-3.5-0.9-9.1-5.3-9.1h-14.4c0.5,2.5,0.6,5.1,0.6,7.7
		c0,4.2-1.2,15.4-2.6,24.1c-2.8,17.4-4.8,30.3-7.5,39h22.1c0.3-6.7,1-16.8,4.5-35.3c2.1-10.8,8.1-21,16.6-21c2.4,0,5.2,0.5,7.2,1.7
		L147.9,712.2 M71.8,710.7c-7.9,0-15.2,3.4-21.1,8.4c1.2-5.9,4.4-21.1,4.4-24.6c0-3-1.7-4.6-4.6-4.6H34.1c-0.4,6.7-1,13.3-2.3,19.9
		l-9.5,52.7c-1.2,7-2.3,14.1-4.3,20.9h23.1c1.1-18,4.8-35.8,7.7-53.6c3.2-3,7.2-5.5,11.8-5.5c3.8,0,7.7,2.4,7.7,6.6
		c0,1-0.1,2.1-0.3,3.1l-5,32.9c-0.4,2.3-0.9,4.7-0.9,7c0,7.7,4.2,10.1,11.5,10.1c2.9,0,6.3-0.1,9.2-0.5c-0.2-0.9-0.4-1.7-0.4-2.5
		c0-4,0.4-8.1,1-12.1l5.8-36.5c0.3-1.9,0.6-3.8,0.6-5.5C89.9,716.2,81.4,710.7,71.8,710.7 M298.7,762.2c-2.7,3.9-9.1,9.4-14.1,9.4
		c-5.4,0-6.4-6.7-6.4-10.7c0-10.7,6-38.4,19.9-38.4c3.2,0,5.4,0,8.2,1.4L298.7,762.2L298.7,762.2z M322.1,747.7
		c3.9-21.4,4.3-23.4,8.1-35.6c-7.2-0.4-13.6,0.3-18.6,2.2c-4.1-1.6-8.5-3.6-13-3.6c-25.7,0-42.9,27.1-42.9,50.7
		c0,13.5,6.1,23.4,20.5,23.4c7.6,0,16.9-4.9,21.7-9.6v1c0,4.6,1.5,7.1,7.1,7.1h14.5c-0.6-2.5-0.8-5.1-0.8-7.6
		C318.5,772.7,318.6,766.2,322.1,747.7 M4.5,698.3c4.8,0,8.6,1.7,12.5,4.7l5-11.3c-6.3-3.9-15.2-7-24-7c-13.1,0-27.2,8.4-27.2,22.9
		c0,5.7,3.6,13.8,8.4,17C-42.3,730.6-53,745-53,758c0,18.1,13.5,28.7,36.6,28.7c17.1,0,34.1-8.5,32.1-28.5c-6.7,6.6-13.4,12-25,12
		c-11.5,0-19-6.7-19-14.9c0-17.7,20.8-22.4,35.5-21.5l3.4-12c-1.2,0.1-1.9,0.2-2.6,0.2c-8.4,0-15.9-4.7-15.9-12.6
		C-7.9,702-1.9,698.3,4.5,698.3"/>
</g>
</svg>
