<svg width="292" height="292" viewBox="0 0 292 292" fill="none" xmlns="http://www.w3.org/2000/svg">
<path d="M82.6217 230.31C82.2117 230.11 81.8117 229.82 81.3817 229.72C76.4517 228.58 71.9717 226.5 67.8717 223.54C66.6417 222.65 66.6117 222.3 67.6317 221.21C75.0317 213.32 82.4317 205.43 89.8217 197.53C94.1017 192.96 98.3717 188.37 102.652 183.79C108.512 177.52 114.382 171.26 120.232 164.98C121.172 163.97 122.072 162.92 123.232 161.62C122.462 161.62 122.002 161.56 121.572 161.63C111.402 163.29 101.242 164.97 91.0617 166.62C77.4217 168.83 63.7817 171.02 50.1317 173.21C49.7817 173.27 49.4117 173.24 49.0617 173.32C48.1817 173.5 47.7517 173.17 47.5217 172.29C46.4717 168.19 45.3717 164.11 44.3117 160.02C43.9417 158.6 44.1117 158.32 45.5617 158.09C52.7717 156.91 59.9917 155.75 67.2017 154.58C80.7617 152.38 94.3217 150.17 107.882 147.97C111.072 147.45 114.272 146.96 117.462 146.44C117.882 146.37 118.302 146.26 119.032 146.1C118.542 145.73 118.312 145.49 118.022 145.35C110.282 141.75 102.542 138.16 94.7917 134.57C89.4717 132.1 84.1517 129.63 78.8217 127.18C71.7617 123.93 64.6817 120.7 57.6217 117.44C53.8917 115.72 50.1817 113.94 46.4617 112.21C43.6417 110.89 40.8317 109.56 37.9817 108.3C36.9917 107.86 36.7417 107.37 37.2717 106.38C39.3717 102.45 42.5517 99.5501 45.9717 96.7901C48.1517 95.0301 50.0717 94.6601 52.6617 96.0801C56.3317 98.0901 60.2217 99.6801 64.0217 101.43C70.2117 104.28 76.4117 107.12 82.6017 109.98C86.1517 111.62 89.6717 113.31 93.2217 114.95C99.4817 117.85 105.762 120.72 112.022 123.62C115.502 125.23 118.962 126.86 122.432 128.47C127.752 130.93 133.082 133.38 138.402 135.84C141.842 137.43 145.272 139.04 148.712 140.64C155.122 143.61 161.532 146.55 167.942 149.52C171.592 151.21 175.222 152.95 178.882 154.64C184.022 157.02 189.172 159.36 194.312 161.74C197.822 163.36 201.322 165.03 204.832 166.65C211.132 169.56 217.442 172.46 223.742 175.37C227.252 176.99 230.742 178.65 234.252 180.27C239.532 182.72 244.822 185.15 250.112 187.59C251.272 188.12 252.422 188.68 253.592 189.19C253.862 189.31 254.192 189.29 254.502 189.33C254.502 189.65 254.502 189.97 254.502 190.29C252.452 195.35 249.092 199.36 244.742 202.61C243.952 203.2 243.232 203.35 242.312 202.92C239.532 201.61 236.722 200.37 233.942 199.08C229.672 197.1 225.412 195.1 221.142 193.13C216.762 191.11 212.372 189.12 207.992 187.08C203.682 185.08 199.402 183.03 195.092 181.03C190.572 178.93 186.022 176.89 181.502 174.79C176.402 172.42 171.312 170.02 166.212 167.64C165.262 167.2 164.272 166.83 163.062 166.33C163.202 167.18 163.242 167.77 163.392 168.34C164.272 171.7 165.192 175.04 166.062 178.4C167.952 185.74 169.822 193.09 171.712 200.43C173.142 205.99 174.582 211.55 176.052 217.11C176.292 218 175.982 218.41 175.152 218.55C168.962 219.54 162.762 220.49 156.582 221.52C155.442 221.71 155.012 221.34 154.752 220.29C153.792 216.42 152.762 212.56 151.752 208.71C149.722 200.95 147.672 193.2 145.642 185.44C144.412 180.73 143.202 176.02 141.972 171.31C141.862 170.88 141.642 170.48 141.392 169.86C140.742 170.48 140.232 170.92 139.782 171.4C133.992 177.58 128.212 183.75 122.442 189.94C115.092 197.82 107.762 205.72 100.402 213.6C96.2917 218.01 92.1317 222.37 88.0117 226.78C86.9517 227.91 86.0117 229.15 85.0117 230.33C84.2217 230.31 83.4217 230.31 82.6217 230.31Z" fill="#EA4926"/>
<path d="M200.941 77.8602C199.591 78.0602 198.231 78.2502 196.891 78.4702C183.641 80.6102 170.402 82.7502 157.162 84.8902C151.522 85.8002 145.891 86.7202 140.251 87.6402C137.971 88.0102 137.891 88.0302 137.271 85.8202C136.181 81.8602 135.191 77.8702 134.181 73.8902C133.941 72.9302 134.611 72.7402 135.341 72.6302C139.281 71.9902 143.222 71.3502 147.162 70.7002C160.212 68.5802 173.251 66.4202 186.301 64.3502C191.421 63.5402 196.561 62.7501 201.711 62.2101C206.821 61.6701 211.892 62.2102 216.912 63.3802C222.252 64.6202 227.121 66.8402 231.391 70.2202C236.811 74.5002 240.462 79.9701 242.042 86.8102C243.282 92.1702 244.821 97.4602 246.201 102.79C247.511 107.85 248.781 112.92 250.091 117.97C250.811 120.75 251.581 123.51 252.321 126.29C252.721 127.81 252.592 128 251.042 128.25C244.932 129.22 238.811 130.17 232.711 131.17C231.721 131.33 231.371 130.99 231.141 130.08C229.471 123.51 227.752 116.95 226.042 110.39C224.072 102.83 222.101 95.2602 220.131 87.7002C220.021 87.2902 219.831 86.8902 219.561 86.1602C218.611 87.1102 217.791 87.8802 217.021 88.6902C213.831 92.1002 210.652 95.5202 207.472 98.9402C200.322 106.62 193.181 114.32 186.021 122C181.961 126.35 177.871 130.66 173.801 135C171.971 136.95 170.152 138.91 168.362 140.89C167.742 141.58 167.121 141.73 166.251 141.32C162.461 139.54 158.641 137.81 154.841 136.06C153.541 135.46 152.251 134.82 150.941 134.24C149.961 133.81 149.902 133.28 150.602 132.52C152.512 130.48 154.382 128.41 156.292 126.36C162.342 119.89 168.401 113.42 174.461 106.95C178.741 102.37 183.012 97.7902 187.292 93.2002C191.702 88.4702 196.111 83.7502 200.511 79.0102C200.741 78.7702 200.891 78.4601 201.081 78.1801C201.041 78.0701 200.991 77.9602 200.941 77.8602Z" fill="white"/>
</svg>
