<svg width="292" height="292" viewBox="0 0 292 292" fill="none" xmlns="http://www.w3.org/2000/svg">
<path d="M125.777 239.537C123.557 239.127 121.297 238.857 119.127 238.267C116.207 237.477 113.337 236.507 110.477 235.507C105.357 233.707 100.267 231.827 95.1772 229.977C89.2972 227.837 83.4172 225.667 77.5272 223.537C69.7272 220.707 61.9171 217.917 54.1171 215.097C47.3671 212.647 40.6272 210.177 33.8872 207.717C28.8272 205.877 23.7172 204.147 18.7172 202.157C12.6372 199.737 7.34715 196.217 3.87715 190.427C0.83715 185.347 0.41716 179.927 1.63716 174.267C2.59716 169.807 4.81716 165.947 7.50716 162.337C15.1172 152.117 22.7472 141.927 30.3672 131.717C35.4972 124.837 40.6172 117.937 45.7572 111.067C54.0472 99.9669 62.3472 88.867 70.6672 77.797C73.1372 74.517 75.5472 71.157 78.2772 68.107C84.1172 61.577 91.4571 57.377 99.8471 54.897C105.517 53.217 111.307 52.777 117.157 53.097C122.237 53.377 127.117 54.667 131.867 56.527C137.137 58.587 142.507 60.407 147.817 62.357C154.737 64.907 161.647 67.477 168.567 70.037C170.097 70.607 171.647 71.127 173.177 71.707C173.997 72.017 174.297 72.427 173.637 73.297C170.237 77.787 166.887 82.307 163.537 86.827C163.017 87.517 162.417 87.757 161.557 87.447C157.697 86.047 153.827 84.677 149.957 83.287C141.737 80.327 133.527 77.357 125.307 74.387C118.027 71.757 110.757 69.107 103.477 66.487C101.757 65.867 101.677 65.907 100.517 67.467C94.6472 75.337 88.7872 83.227 82.9072 91.097C74.4172 102.447 65.9172 113.787 57.4272 125.147C51.7572 132.727 46.1272 140.327 40.4572 147.907C32.6672 158.337 24.8572 168.747 17.0572 179.167C15.7672 180.897 15.7872 180.957 17.8472 181.707C27.7072 185.267 37.5672 188.837 47.4272 192.407C54.5872 194.997 61.7472 197.587 68.9072 200.187C75.3972 202.537 81.8771 204.897 88.3571 207.247C95.6671 209.897 102.967 212.547 110.277 215.187C117.507 217.807 124.747 220.427 131.977 223.057C134.817 224.087 137.657 225.147 140.497 226.207C141.977 226.757 142.317 226.667 143.317 225.327C150.077 216.277 156.837 207.217 163.597 198.167C170.387 189.087 177.197 180.017 183.947 170.907C184.707 169.877 185.427 169.667 186.567 170.087C191.457 171.907 196.367 173.667 201.277 175.457C202.337 175.847 201.907 176.477 201.487 177.047C199.667 179.527 197.827 181.987 195.997 184.457C189.567 193.107 183.137 201.767 176.687 210.407C173.557 214.597 170.457 218.817 167.217 222.917C164.267 226.637 160.617 229.607 156.617 232.177C151.547 235.437 146.047 237.557 140.167 238.747C138.487 239.087 136.787 239.297 135.097 239.557C132.017 239.537 128.897 239.537 125.777 239.537Z" fill="#EA4926"/>
<path d="M291.718 110.817C288.208 115.517 284.688 120.217 281.198 124.927C280.508 125.857 279.757 126.187 278.617 125.767C273.427 123.837 268.167 122.057 263.027 119.997C257.117 117.637 251.807 114.357 248.397 108.727C246.447 105.507 245.067 102.097 245.397 98.207C245.587 95.997 245.657 93.777 246.017 91.597C246.527 88.437 248.008 85.587 249.808 83.017C253.838 77.267 258.107 71.687 262.257 66.017C262.787 65.297 263.378 65.087 264.218 65.387C267.098 66.427 269.997 67.437 272.877 68.477C274.977 69.237 277.037 70.087 279.157 70.787C280.317 71.167 280.157 71.667 279.597 72.417C277.447 75.297 275.307 78.177 273.167 81.057C269.027 86.627 264.887 92.207 260.747 97.777C260.587 97.997 260.448 98.237 260.198 98.617C260.798 98.917 261.317 99.257 261.897 99.467C269.957 102.377 278.018 105.277 286.088 108.157C287.958 108.827 289.847 109.447 291.727 110.087C291.717 110.337 291.718 110.577 291.718 110.817Z" fill="white"/>
<path d="M137.927 186.767C136.217 186.187 134.707 185.697 133.207 185.157C126.157 182.617 119.097 180.067 112.057 177.507C105.237 175.027 98.4268 172.517 91.5968 170.047C83.8368 167.237 76.0668 164.447 68.2968 161.647C67.6168 161.407 66.9568 161.127 66.2868 160.867C65.2368 160.457 65.1169 160.057 65.8369 159.077C68.0869 156.027 70.3568 152.977 72.6168 149.937C73.7368 148.427 74.8868 146.947 75.9868 145.427C76.4368 144.797 76.8468 144.567 77.6768 144.877C84.5568 147.417 91.4568 149.897 98.3568 152.387C103.607 154.277 108.877 156.127 114.117 158.037C120.857 160.487 127.587 162.997 134.327 165.447C138.817 167.077 143.337 168.657 147.847 170.267C148.187 170.387 148.517 170.517 148.857 170.637C149.717 170.947 149.867 171.487 149.337 172.197C148.197 173.737 147.027 175.257 145.887 176.797C143.667 179.777 141.457 182.767 139.217 185.717C138.887 186.147 138.357 186.427 137.927 186.767Z" fill="#EA4926"/>
<path d="M103.507 109.157C105.157 109.717 106.597 110.187 108.017 110.697C113.637 112.727 119.247 114.777 124.857 116.817C132.767 119.677 140.667 122.537 148.577 125.397C155.917 128.057 163.267 130.727 170.607 133.387C172.177 133.957 173.737 134.547 175.317 135.107C176.197 135.417 176.327 135.967 175.797 136.667C172.377 141.287 168.957 145.907 165.527 150.517C165.057 151.157 164.527 151.337 163.677 151.017C158.527 149.087 153.357 147.217 148.187 145.357C141.447 142.927 134.687 140.527 127.947 138.087C121.027 135.577 114.117 133.017 107.197 130.507C102.597 128.837 97.977 127.207 93.357 125.587C91.587 124.967 91.497 124.707 92.597 123.227C95.767 118.977 98.937 114.707 102.127 110.467C102.497 109.977 103.047 109.587 103.507 109.157Z" fill="#EA4926"/>
<path d="M242.867 112.797C243.027 115.967 242.327 119.427 240.847 122.697C239.247 126.237 237.107 129.457 234.737 132.547C231.767 136.407 228.877 140.327 226.017 144.267C225.367 145.157 224.687 145.427 223.687 145.067C218.817 143.297 213.937 141.537 209.077 139.737C207.897 139.297 207.827 138.927 208.697 137.757C211.697 133.717 214.727 129.707 217.737 125.677C220.847 121.517 223.947 117.367 227.047 113.197C228.037 111.867 227.967 111.717 226.437 111.157C219.497 108.647 212.577 106.107 205.637 103.587C202.977 102.617 200.307 101.667 197.657 100.677C196.377 100.197 196.257 99.857 197.057 98.757C200.397 94.227 203.787 89.727 207.147 85.217C207.667 84.527 208.247 84.327 209.117 84.657C212.547 85.937 216.017 87.117 219.447 88.407C222.357 89.497 225.297 90.537 228.107 91.837C232.827 94.027 236.857 97.147 239.637 101.617C241.667 104.887 242.927 108.447 242.867 112.797Z" fill="white"/>
</svg>
