<svg width="292" height="292" viewBox="0 0 292 292" fill="none" xmlns="http://www.w3.org/2000/svg">
<path d="M184.28 243.631C181.25 242.431 178.22 241.221 175.18 240.041C172.92 239.161 170.639 238.311 168.369 237.461C167.339 237.081 167.11 236.521 167.78 235.571C169.83 232.671 171.839 229.751 173.869 226.841C175.789 224.101 177.719 221.361 179.639 218.621C181.859 215.451 184.08 212.291 186.29 209.111C188.16 206.431 190.019 203.741 191.899 201.061C194.659 197.111 197.44 193.161 200.2 189.211C202.05 186.561 203.889 183.911 205.749 181.271C208.379 177.521 211.019 173.771 213.649 170.011C215.639 167.171 217.609 164.321 219.599 161.471C222.249 157.681 224.91 153.901 227.56 150.111C229.55 147.271 231.519 144.411 233.509 141.571C236.159 137.781 238.819 134.001 241.469 130.211C243.359 127.501 245.249 124.781 247.129 122.061C247.859 121.011 248.59 119.971 249.3 118.911C250.31 117.401 250.249 117.311 248.579 116.701C245.589 115.601 242.619 114.461 239.639 113.341C235.169 111.661 230.689 110.001 226.229 108.311C222.509 106.901 218.809 105.441 215.089 104.031C210.659 102.361 206.21 100.731 201.78 99.0709C198.95 98.0109 196.13 96.911 193.31 95.831C190.04 94.581 186.759 93.3409 183.479 92.1009C179.419 90.5709 175.36 89.0509 171.3 87.5309C167.54 86.1209 163.779 84.7009 160.009 83.2909C157.289 82.2709 154.569 81.2609 151.849 80.2409C148.309 78.9109 144.779 77.5709 141.239 76.2309C136.959 74.6109 132.669 73.0109 128.399 71.3809C123.229 69.4209 118.059 67.4409 112.899 65.4609C112.859 65.4509 112.83 65.4209 112.79 65.4109C110.06 64.6909 110.509 64.2309 111.839 62.2809C114.739 58.0409 117.719 53.841 120.639 49.611C121.109 48.931 121.63 48.8909 122.29 49.1409C126.2 50.6309 130.099 52.1509 134.009 53.6209C138.409 55.2709 142.829 56.8709 147.219 58.5209C151.909 60.2909 156.58 62.1209 161.28 63.9009C165.67 65.5609 170.099 67.1509 174.489 68.8109C179.849 70.8309 185.19 72.9209 190.56 74.9409C195.77 76.9009 201.019 78.7909 206.229 80.7609C210.139 82.2309 214.02 83.7909 217.94 85.2709C222.33 86.9309 226.759 88.5209 231.149 90.1709C235.839 91.9409 240.499 93.8209 245.209 95.5309C249.089 96.9409 252.869 98.5809 256.099 101.171C261.989 105.881 265.28 111.911 265.41 119.621C265.55 127.201 262.46 133.541 258.31 139.541C256.22 142.561 254.099 145.551 251.999 148.561C249.389 152.281 246.77 155.991 244.17 159.721C241.04 164.201 237.92 168.681 234.79 173.161C232.16 176.921 229.519 180.661 226.889 184.421C224.989 187.131 223.119 189.851 221.219 192.571C219.229 195.421 217.239 198.261 215.249 201.101C212.539 204.991 209.839 208.891 207.109 212.781C204.539 216.431 201.939 220.061 199.379 223.721C197.339 226.631 195.359 229.571 193.329 232.491C190.989 235.861 188.619 239.221 186.269 242.591C186.049 242.911 185.909 243.291 185.739 243.641C185.239 243.631 184.76 243.631 184.28 243.631Z" fill="white"/>
<path d="M27 183.221C28.17 181.671 29.37 180.151 30.51 178.571C32.77 175.431 34.96 172.251 37.27 169.151C37.54 168.791 38.44 168.591 38.9 168.741C41.85 169.731 44.76 170.831 47.67 171.921C50.05 172.811 52.41 173.761 54.79 174.651C55.81 175.031 56.02 175.421 55.41 176.311C53.06 179.721 50.68 183.121 48.3 186.511C47.48 187.691 46.63 188.851 45.79 190.011C45.34 190.631 44.8 190.801 44.02 190.501C39.27 188.671 34.5 186.881 29.73 185.091C28.83 184.751 27.92 184.481 27.01 184.171C27 183.861 27 183.541 27 183.221Z" fill="#EA4926"/>
<path d="M208.08 137.011C208.03 143.331 205.96 149.011 202.51 154.191C199.37 158.901 196.07 163.501 192.83 168.151C189.57 172.831 186.32 177.511 183.06 182.181C179.45 187.341 175.81 192.491 172.2 197.651C168.93 202.321 165.69 207.011 162.42 211.681C159.27 216.191 156.09 220.681 152.93 225.191C151.99 226.531 151.04 227.861 150.11 229.211C149.64 229.901 149.1 230.141 148.28 229.831C145.34 228.711 142.39 227.631 139.45 226.531C137.18 225.681 134.92 224.781 132.64 223.951C131.28 223.461 131.09 223.181 131.87 222.031C133.85 219.131 135.88 216.271 137.88 213.401C139.89 210.521 141.88 207.631 143.89 204.761C146.52 201.001 149.16 197.261 151.79 193.501C153.78 190.661 155.75 187.811 157.74 184.961C160.39 181.171 163.05 177.391 165.7 173.601C167.59 170.891 169.47 168.161 171.36 165.451C173.53 162.351 175.71 159.251 177.89 156.151C179.74 153.511 181.59 150.861 183.44 148.211C185.68 145.011 187.92 141.811 190.16 138.611C190.82 137.661 191.49 136.721 192.15 135.771C192.72 134.951 192.7 134.331 191.64 133.931C189.18 133.011 186.73 132.051 184.27 131.131C180.99 129.901 177.71 128.681 174.43 127.461C169.85 125.741 165.26 124.031 160.69 122.301C157.19 120.981 153.71 119.611 150.21 118.291C146.86 117.021 143.49 115.801 140.14 114.551C135.67 112.881 131.2 111.211 126.73 109.521C123.16 108.171 119.59 106.801 116.02 105.451C111.4 103.711 106.78 101.991 102.16 100.251C98.3604 98.821 94.5504 97.401 90.7704 95.921C89.0504 95.251 89.0404 94.951 90.1104 93.411C92.8204 89.521 95.5104 85.611 98.2204 81.711C98.3804 81.481 98.5305 81.241 98.7005 81.021C99.8305 79.601 100.06 79.481 101.72 80.111C107.87 82.421 114 84.791 120.15 87.121C123.91 88.541 127.7 89.901 131.46 91.321C136.86 93.361 142.24 95.461 147.64 97.491C152.15 99.191 156.69 100.811 161.2 102.511C165.82 104.251 170.41 106.081 175.02 107.821C179.45 109.491 183.94 111.031 188.34 112.781C193.25 114.731 198.09 116.881 201.7 120.961C205.13 124.841 207.6 129.191 207.85 134.531C207.87 135.351 207.99 136.181 208.08 137.011Z" fill="white"/>
<path d="M150.48 153.951C150.82 160.751 148.36 166.501 144.73 171.851C141.55 176.541 138.31 181.181 135.07 185.821C131.83 190.461 128.54 195.071 125.29 199.711C122.25 204.051 119.25 208.421 116.22 212.781C115.49 213.831 114.79 214.901 113.95 215.861C113.66 216.191 112.92 216.461 112.54 216.321C107.38 214.431 102.24 212.491 97.12 210.501C95.01 209.681 95.0601 209.491 96.4501 207.591C98.5901 204.661 100.62 201.651 102.7 198.681C105.31 194.961 107.93 191.251 110.54 187.521C112.55 184.651 114.54 181.761 116.55 178.881C119.18 175.121 121.82 171.381 124.45 167.621C126.44 164.781 128.42 161.931 130.4 159.081C131.86 156.981 133.3 154.881 134.76 152.791C135.47 151.761 135.42 151.491 134.27 151.061C128.05 148.711 121.82 146.391 115.61 144.031C109.81 141.821 104.03 139.561 98.22 137.371C94.35 135.901 90.4501 134.521 86.5701 133.071C82.6901 131.621 78.83 130.141 74.96 128.661C72.88 127.861 70.82 127.021 68.73 126.231C67.88 125.911 67.71 125.441 68.23 124.691C69.59 122.721 70.9301 120.741 72.2901 118.771C73.9001 116.451 75.5401 114.141 77.1701 111.821C78.3101 110.191 78.6101 110.081 80.4301 110.781C85.6001 112.751 90.7601 114.751 95.9301 116.711C99.8101 118.171 103.72 119.541 107.59 121.001C112.8 122.971 117.99 125.011 123.2 126.991C126.48 128.231 129.81 129.341 133.06 130.651C140.45 133.641 146.31 138.351 149.29 145.971C150.3 148.551 150.74 151.301 150.48 153.951Z" fill="#EA4926"/>
<path d="M96.5303 170.151C96.8203 176.301 94.8703 181.601 91.7003 186.461C88.5703 191.271 85.1903 195.921 81.9203 200.631C81.4203 201.351 80.9203 202.071 80.4303 202.801C79.8403 203.681 79.0203 203.781 78.1103 203.431C73.1903 201.581 68.2803 199.731 63.3703 197.871C63.0403 197.741 62.7303 197.551 62.4003 197.411C61.5703 197.041 61.4903 196.541 62.0103 195.811C65.4503 190.921 68.8903 186.031 72.3103 181.131C75.2103 176.981 78.0802 172.811 80.9702 168.651C81.4502 167.961 81.3603 167.441 80.5703 167.141C76.9603 165.781 73.3403 164.441 69.7303 163.071C66.8603 161.991 64.0103 160.881 61.1403 159.801C57.7503 158.521 54.3602 157.261 50.9602 156.001C50.4002 155.791 49.8303 155.601 49.2803 155.371C47.3603 154.551 47.3503 154.371 48.5603 152.671C51.2103 148.931 53.7702 145.131 56.4702 141.421C58.4502 138.701 57.9103 138.671 60.7503 139.811C64.1103 141.161 67.5303 142.381 70.9203 143.651C73.6003 144.651 76.3102 145.591 78.9702 146.661C84.8002 149.001 89.8403 152.391 93.2403 157.831C95.6503 161.661 96.8603 165.821 96.5303 170.151Z" fill="#EA4926"/>
</svg>
