<svg width="292" height="292" viewBox="0 0 292 292" fill="none" xmlns="http://www.w3.org/2000/svg">
<path d="M92.7202 69.28C97.2802 72.23 101.84 75.18 106.39 78.14C106.93 78.49 107.41 78.91 107.96 79.24C108.84 79.76 108.76 80.27 108.1 80.93C105.21 83.81 102.36 86.71 99.4802 89.59C87.8902 101.22 76.3002 112.84 64.7102 124.46C60.0302 129.15 55.3502 133.86 50.6302 138.51C49.4502 139.67 49.0202 140.84 49.2502 142.55C50.3302 150.7 51.2402 158.86 52.2202 167.02C53.0602 173.95 53.9102 180.88 54.7502 187.81C55.0502 190.31 55.3202 192.8 55.6402 195.3C55.8802 197.2 56.0102 197.36 57.9002 197.21C61.6002 196.92 65.2902 196.52 68.9802 196.16C74.2602 195.64 79.5401 195.12 84.8301 194.59C90.9901 193.98 97.1401 193.37 103.3 192.76C108.46 192.25 113.63 191.74 118.79 191.23C120.97 191.01 123.17 190.88 125.33 190.51C126.25 190.35 127.27 189.88 127.92 189.23C137.04 180.16 146.1 171.04 155.19 161.93C160.13 156.98 165.11 152.08 170.04 147.13C174.75 142.41 179.35 137.57 184.12 132.92C187.53 129.6 186.37 129.83 190.33 132.31C194.12 134.68 197.86 137.14 201.61 139.58C203.64 140.91 203.63 140.94 201.9 142.67C182.66 161.96 163.41 181.23 144.2 200.55C139.86 204.92 134.66 207.23 128.59 207.82C120.05 208.65 111.52 209.54 102.98 210.39C96.0302 211.08 89.0802 211.78 82.1202 212.37C77.1502 212.79 72.1702 213.34 67.2002 213.25C58.6702 213.1 50.8802 210.38 44.2202 204.94C36.9602 199 33.1202 191.25 32.2402 181.91C31.6502 175.64 30.7502 169.39 30.0002 163.13C29.1602 156.2 28.2902 149.27 27.5102 142.33C26.9602 137.42 28.6102 133.22 32.0602 129.73C39.5602 122.15 47.0702 114.58 54.6002 107.02C65.3702 96.21 76.1702 85.43 86.9502 74.64C88.7302 72.86 90.4802 71.06 92.2402 69.27C92.4002 69.28 92.5602 69.28 92.7202 69.28Z" fill="#EA4926"/>
<path d="M265.13 154.36C264.82 155.06 264.49 155.76 264.21 156.47C263 159.52 260.83 161.86 258.57 164.13C241.12 181.6 223.66 199.05 206.21 216.52C204.49 218.24 202.77 219.96 201.09 221.73C200.47 222.38 199.91 222.41 199.2 221.94C194.42 218.82 189.62 215.72 184.85 212.58C183.65 211.79 183.68 211.67 184.73 210.61C187.8 207.52 190.89 204.45 193.95 201.36C199.13 196.14 204.27 190.9 209.47 185.7C220.25 174.9 231.04 164.1 241.87 153.35C243.14 152.09 243.62 150.86 243.38 149C242.06 138.79 240.9 128.56 239.68 118.34C238.8 111.05 237.91 103.76 237.02 96.48C236.77 94.49 236.65 94.33 234.59 94.5C230.18 94.87 225.77 95.34 221.36 95.77C216.08 96.29 210.8 96.83 205.51 97.35C200.11 97.89 194.71 98.42 189.3 98.96C183.34 99.55 177.38 100.14 171.42 100.72C170.31 100.83 169.19 100.94 168.08 101.01C166.53 101.11 165.32 101.78 164.21 102.89C149.97 117.18 135.69 131.44 121.44 145.72C117.43 149.73 113.48 153.8 109.49 157.83C108.65 158.68 107.76 159.48 106.87 160.29C105.57 161.48 105.56 161.47 104.05 160.5C99.7097 157.72 95.3797 154.93 91.0397 152.15C90.9097 152.06 90.7697 151.98 90.6397 151.89C89.0697 150.78 89.0597 150.7 90.4297 149.32C94.2397 145.5 98.0497 141.69 101.86 137.87C117.4 122.28 132.96 106.71 148.47 91.09C152.71 86.82 157.8 84.5 163.75 83.91C172.41 83.05 181.07 82.17 189.72 81.31C198.7 80.42 207.67 79.55 216.65 78.66C223.6 77.97 230.53 78.16 237.13 80.53C247.96 84.42 255.76 91.59 259.09 102.86C260.07 106.16 260.32 109.68 260.77 113.12C261.43 118.14 261.96 123.18 262.56 128.21C263.33 134.71 264.12 141.2 264.9 147.7C264.94 148.01 265.04 148.32 265.12 148.62C265.13 150.52 265.13 152.44 265.13 154.36Z" fill="white"/>
</svg>
