<?xml version="1.0" encoding="utf-8"?>
<!-- Generator: Adobe Illustrator 19.2.1, SVG Export Plug-In . SVG Version: 6.00 Build 0)  -->
<svg version="1.1" id="layer" xmlns="http://www.w3.org/2000/svg" xmlns:xlink="http://www.w3.org/1999/xlink" x="0px" y="0px"
	 viewBox="0 0 652 652" style="enable-background:new 0 0 652 652;" xml:space="preserve">
<style type="text/css">
	.st0{fill:#929292;}
	.st1{fill:#0095DB;}
</style>
<g>
	<path class="st0" d="M125.1,268.5c0,0-7.2-1.9-17.8-2.7c-9.3-0.7-21.3-0.8-33.3,1.9c-26.1,5.7-52.3,26.5-52.3,55.6
		c0,20,11.4,36.1,28.3,45.6c7.1,4,15.1,6.7,23.7,8.3c30.8,5.5,66.1-3.4,66.1-3.4v-36.2c0,0-6.7-0.8-10.9-1.2c-4.1-0.4-12.9-2-12.9-2
		l0,26.8c0,0-16.4,6.3-38.2,0c-3.2-0.9-6-2.2-8.7-3.5c-16.5-8-23.5-22.3-23.5-36c0-23.1,19.1-41,48.2-41c10.7,0,18.7,2.6,23.9,5.1
		c4.8,2.2,7.4,4.3,7.4,4.3L125.1,268.5"/>
	<path class="st0" d="M274.4,337.5c0,0,6.7-0.8,9.7-1.2c5.4-0.7,13.7-2.1,13.7-2.1l-10.9,26.3c0,0-2.7,6.2-3.3,9.2
		c-0.3,1.3-0.4,2.7-0.2,3.7c0.2,1.6,0.9,2.5,0.9,2.5l-30.7,0c0,0,3.1-3.5,5.1-6.6c2.5-3.9,5-9.3,7.1-13.4
		C269.6,347.9,274.4,337.5,274.4,337.5"/>
	<path class="st0" d="M169.8,339.8c0,0,7,0.4,11.5,0.5c4.7,0.1,12.6,0.4,12.6,0.4v20.2c0,0,39,0.1,40.1,0.1c1.5,0,3.8-0.1,5.8-0.3
		c2.3-0.2,4.3-0.4,5.3-0.7c1.7-0.5,1.9-0.8,1.9-0.8l-7.2,17h-71.4c0,0,0.5-2.5,0.9-5.1c0.4-2.3,0.6-7.4,0.6-7.4V339.8z"/>
	<path class="st0" d="M168.4,268h69.4v17.3c0,0-1-0.4-2.3-0.8c-1-0.3-5.1-0.7-8.4-0.8c-3.8-0.1-8.4-0.1-8.4-0.1h-24.8l0,29.4
		l-12.1-0.3l-12-0.3l0-31.9c0,0-0.1-4.4-0.3-6.6C169.2,271.3,168.4,268,168.4,268"/>
	<path class="st0" d="M227.6,295.6c0,0,5.6,0,12.1,0.1c6,0.1,12.8,0.3,16.9,0.4c8.7,0.2,15.4,0.5,20.1,0.8c6,0.3,9,0.7,9,0.7
		l-1.6,3.5c0,0-20.3-2.1-27.3-2.7c-6.5-0.6-26.2-2.4-29.1-2.6C227.5,295.8,227.6,295.6,227.6,295.6"/>
	<path class="st0" d="M287.1,309.2l12.4-28.2c0,0,2.4-5.2,3.1-7.1c1-2.9,1-5.9,1-5.9l35.8,0l37.7,87.6c0,0,4.1,10,5.4,12.2
		c0.9,1.6,2.5,3.8,3.7,5.3c1.6,2,2.7,2.9,2.7,2.9l-32.2,0c0,0,0.8-2.1,0.6-4.1c-0.3-2.2-1.6-4.6-1.6-4.6l-16.5-38.6L320,284.5
		l-0.5-1.4l-0.5,1.4l-8.8,20.1c0,0-6.8,1.8-10.3,2.5C295.8,308,287.1,309.2,287.1,309.2"/>
	<path class="st0" d="M162.1,296.7c0,0-3.4-0.1-8.3,0.1c-2.9,0.1-6.4,0.2-10,0.4c-18.1,1-34.6,3.5-44.3,6.4
		c-8.6,2.6-15.9,6.1-15.9,10.4c0,4.1,6.6,7.6,16.5,10.5c8.7,2.5,20.1,4.6,32,6.1c34.5,4.3,64.6,4.2,74.9,4.2c6.7,0,54-0.1,87.7-6.2
		c21.8-3.9,35.3-8.7,35.3-14.7c0-2.8-2.6-4.9-5.5-6.5c-3.4-1.9-7.1-2.9-7.1-2.9s1.9,2.2-2.1,4.4c-1.6,0.9-4,1.7-7.2,2.6
		c-2.8,0.7-6.2,1.6-10.1,2.3c-6.2,1.1-13.5,2-22,2.7c-5.6,0.5-19.1,1.5-35.6,2.1c-17.2,0.6-34.4,0.6-34.4,0.6s-15.7,0-34.9-0.7
		c-9.1-0.3-19-0.8-28.3-1.5c-12-0.9-23.5-2.2-31.2-3.9c-6.3-1.3-10.2-3-10.2-4.4C101.3,302.1,162.1,296.7,162.1,296.7"/>
	<path class="st1" d="M426.5,315.7c0,2.4-1.5,4.2-4.4,4.2c-1.3,0-3-0.9-3-2.6c0-2.8,3.9-3.1,5.5-3.1c0.6,0,1.3,0.1,1.9,0.1V315.7z
		 M429.5,321.9c-0.1-0.5-0.1-1.3-0.1-3.1v-6.6c0-4.4-1.8-6.6-6.4-6.6c-2,0-3.8,0.6-5.3,1.5l0.2,2.5c1.2-1,3-1.6,4.6-1.6
		c2.9,0,3.9,1.4,3.9,4.2c-1.2-0.1-2-0.1-3.1-0.1c-3,0-7.4,1.2-7.4,5.3c0,3.5,2.4,5,5.8,5c2.7,0,4.3-1.5,4.9-2.4h0.1v2.1H429.5z"/>
	<path class="st1" d="M456.6,313.8c0.1,2.5-1.3,6-4.4,6c-3.3,0-4.7-3.3-4.7-5.9c0-3,1.5-6,4.7-6S456.7,310.9,456.6,313.8
		 M459.7,313.6c0-4.3-2.2-8.1-6.9-8.1c-2.8,0-4.4,1.1-5.3,2.6h-0.1v-9.7h-2.9v23.5h2.8v-2.2h0.1c0.8,1.2,2.6,2.6,5.4,2.6
		C457.7,322.2,459.7,318,459.7,313.6"/>
	<path class="st1" d="M473.6,312.3h-8.3c0.2-2.1,1.4-4.4,4.3-4.4C472.2,307.9,473.6,309.9,473.6,312.3 M476.8,314.5c0-5.1-1.7-9-7-9
		c-4.5,0-7.5,3.3-7.5,8.1c0,5.2,2.6,8.6,8.3,8.6c2.6,0,3.9-0.6,5-1v-2.9c-0.7,0.6-3,1.6-4.9,1.6c-2.8,0-5.3-2.2-5.3-5.3H476.8z"/>
	<path class="st1" d="M488.9,305.9h-4.2v-4.6l-2.9,0.9v3.7h-3.6v2.4h3.6v9.3c0,3.2,1.9,4.6,4.9,4.6c0.9,0,1.8-0.3,2.5-0.4v-2.5
		c-0.4,0.3-1.1,0.6-2,0.6c-1.3,0-2.5-1-2.5-2.8v-8.7h4.2V305.9z"/>
	<path class="st1" d="M500.9,305.9h-4.2v-4.6l-2.9,0.9v3.7h-3.6v2.4h3.6v9.3c0,3.2,1.9,4.6,4.9,4.6c0.9,0,1.8-0.3,2.5-0.4v-2.5
		c-0.4,0.3-1.1,0.6-2,0.6c-1.3,0-2.5-1-2.5-2.8v-8.7h4.2V305.9z"/>
	<path class="st1" d="M514.9,312.3h-8.3c0.2-2.1,1.4-4.4,4.3-4.4C513.4,307.9,514.9,309.9,514.9,312.3 M518,314.5c0-5.1-1.7-9-7-9
		c-4.5,0-7.5,3.3-7.5,8.1c0,5.2,2.6,8.6,8.3,8.6c2.6,0,3.9-0.6,5-1v-2.9c-0.7,0.6-3,1.6-4.9,1.6c-2.8,0-5.3-2.2-5.3-5.3H518z"/>
	<path class="st1" d="M521.8,321.9h2.9v-7.3c0-4,1.7-6.5,4.4-6.5c0.5,0,1.1,0.1,1.6,0.3v-2.6c-0.6-0.1-1.1-0.2-1.9-0.2
		c-1.7,0-3.4,1.2-4.2,2.8h-0.1v-2.5h-2.7V321.9z"/>
</g>
<polygon class="st1" points="566,305.9 563.1,305.9 559.2,319.1 559.2,319.1 555.2,305.9 551.7,305.9 547.6,319.1 547.6,319.1 
	543.9,305.9 540.7,305.9 545.8,321.9 549.2,321.9 553.3,308.5 553.3,308.5 557.4,321.9 560.9,321.9 "/>
<g>
	<path class="st1" d="M580.7,313.9c0,2.8-1.5,6-5,6c-3.5,0-5-3.1-5-6c0-3,1.8-6,5-6C578.8,307.9,580.7,310.8,580.7,313.9
		 M583.8,313.9c0-4.9-3.3-8.4-8.1-8.4c-4.9,0-8.1,3.5-8.1,8.4c0,4.6,3.3,8.4,8.1,8.4C580.5,322.2,583.8,318.4,583.8,313.9"/>
	<path class="st1" d="M587.2,321.9h2.9v-7.3c0-4,1.7-6.5,4.4-6.5c0.5,0,1.1,0.1,1.6,0.3v-2.6c-0.6-0.1-1.1-0.2-1.9-0.2
		c-1.7,0-3.4,1.2-4.2,2.8H590v-2.5h-2.7V321.9z"/>
</g>
<rect x="599.7" y="298.4" class="st1" width="2.9" height="23.5"/>
<g>
	<path class="st1" d="M618.8,313.9c0,2.7-1.4,5.9-4.7,5.9c-3.2,0-4.5-3.5-4.4-6c-0.1-2.9,1.2-5.9,4.4-5.9
		C617.3,307.9,618.8,310.9,618.8,313.9 M621.7,321.9v-23.5h-2.9v9.7h-0.1c-0.9-1.5-2.5-2.6-5.3-2.6c-4.6,0-6.9,3.8-6.9,8.1
		c0,4.4,2,8.6,6.9,8.6c2.8,0,4.7-1.4,5.4-2.6h0.1v2.2H621.7z"/>
	<path class="st0" d="M402.8,278h-8.3c0.2-2.1,1.4-4.4,4.3-4.4C401.3,273.5,402.8,275.5,402.8,278 M405.9,280.1c0-5.1-1.7-9-7-9
		c-4.5,0-7.5,3.3-7.5,8.1c0,5.2,2.6,8.6,8.3,8.6c2.6,0,3.9-0.6,5-1v-2.9c-0.7,0.6-3,1.6-4.9,1.6c-2.8,0-5.3-2.2-5.3-5.3H405.9z"/>
	<path class="st0" d="M409.3,287.5h2.9v-7.4c0-3.9,1.5-6.6,4.9-6.6c2.6,0.2,3.4,2,3.4,5.7v8.3h2.9V278c0-4.3-1.8-6.9-6-6.9
		c-2.2,0-4.4,1.1-5.2,2.9h-0.1v-2.5h-2.8V287.5z"/>
	<path class="st0" d="M439.4,279.7c0,3-1.9,5.4-4.7,5.4s-4.4-2.6-4.4-5.6c0-2.7,1.5-5.9,4.4-5.9
		C437.9,273.5,439.4,276.4,439.4,279.7 M442.3,286.8v-15.3h-2.7v2.4h-0.1c-0.9-1.7-2.4-2.7-5.3-2.7c-4.8,0-7.1,4.4-7.1,8.5
		c0,4.1,2.3,7.9,6.8,7.9c2,0,4.1-0.8,5.4-2.5h0.1v1.6c0,3.4-1.8,5.5-4.9,5.5c-2.2,0-3.5-0.4-5.8-1.4l-0.3,2.7c2.6,0.9,4,1.1,5.7,1.1
		C439.8,294.4,442.3,291.6,442.3,286.8"/>
</g>
<rect x="447.6" y="271.5" class="st0" width="2.9" height="16"/>
<rect x="447.4" y="264.6" class="st0" width="3.3" height="3.3"/>
<g>
	<path class="st0" d="M455.7,287.5h2.9v-7.4c0-3.9,1.5-6.6,4.9-6.6c2.6,0.2,3.4,2,3.4,5.7v8.3h2.9V278c0-4.3-1.8-6.9-6-6.9
		c-2.2,0-4.4,1.1-5.2,2.9h-0.1v-2.5h-2.8V287.5z"/>
	<path class="st0" d="M485,278h-8.3c0.2-2.1,1.4-4.4,4.3-4.4C483.6,273.5,485,275.5,485,278 M488.1,280.1c0-5.1-1.7-9-7-9
		c-4.5,0-7.5,3.3-7.5,8.1c0,5.2,2.6,8.6,8.3,8.6c2.6,0,3.9-0.6,5-1v-2.9c-0.7,0.6-3,1.6-4.9,1.6c-2.8,0-5.3-2.2-5.3-5.3H488.1z"/>
	<path class="st0" d="M502.3,278H494c0.2-2.1,1.4-4.4,4.3-4.4C500.8,273.5,502.3,275.5,502.3,278 M505.4,280.1c0-5.1-1.7-9-7-9
		c-4.5,0-7.5,3.3-7.5,8.1c0,5.2,2.6,8.6,8.3,8.6c2.6,0,3.9-0.6,5-1v-2.9c-0.7,0.6-3,1.6-4.9,1.6c-2.8,0-5.3-2.2-5.3-5.3H505.4z"/>
	<path class="st0" d="M509.2,287.5h2.9v-7.3c0-4,1.7-6.5,4.4-6.5c0.5,0,1.1,0.1,1.6,0.3v-2.6c-0.6-0.1-1.1-0.2-1.9-0.2
		c-1.7,0-3.4,1.2-4.2,2.8h-0.1v-2.5h-2.7V287.5z"/>
</g>
<rect x="521.6" y="271.5" class="st0" width="2.9" height="16"/>
<rect x="521.4" y="264.6" class="st0" width="3.3" height="3.3"/>
<g>
	<path class="st0" d="M529.7,287.5h2.9v-7.4c0-3.9,1.5-6.6,4.9-6.6c2.6,0.2,3.4,2,3.4,5.7v8.3h2.9V278c0-4.3-1.8-6.9-6-6.9
		c-2.2,0-4.4,1.1-5.2,2.9h-0.1v-2.5h-2.8V287.5z"/>
	<path class="st0" d="M559.9,279.7c0,3-1.9,5.4-4.7,5.4c-2.8,0-4.4-2.6-4.4-5.6c0-2.7,1.5-5.9,4.4-5.9
		C558.3,273.5,559.9,276.4,559.9,279.7 M562.8,286.8v-15.3h-2.7v2.4H560c-0.9-1.7-2.4-2.7-5.3-2.7c-4.8,0-7.1,4.4-7.1,8.5
		c0,4.1,2.3,7.9,6.8,7.9c2,0,4.1-0.8,5.4-2.5h0.1v1.6c0,3.4-1.8,5.5-4.9,5.5c-2.2,0-3.5-0.4-5.8-1.4l-0.3,2.7c2.6,0.9,4,1.1,5.7,1.1
		C560.3,294.4,562.8,291.6,562.8,286.8"/>
	<path class="st0" d="M578.1,287.5h2.9v-13.6h4.2v-2.4h-4.2v-1.7c0-2.2,0.3-3.8,2.8-3.8c0.5,0,1.1,0.1,1.4,0.2l0.1-2.4
		c-0.6-0.1-1.2-0.2-2-0.2c-4.3,0-5.3,2.5-5.3,6.4v1.5h-3.8v2.4h3.8V287.5z"/>
	<path class="st0" d="M599.6,279.5c0,2.8-1.5,6-5,6c-3.5,0-5-3.1-5-6c0-3,1.8-6,5-6C597.7,273.5,599.6,276.5,599.6,279.5
		 M602.7,279.5c0-4.9-3.3-8.4-8.1-8.4c-4.9,0-8.1,3.5-8.1,8.4c0,4.6,3.3,8.4,8.1,8.4C599.4,287.8,602.7,284.1,602.7,279.5"/>
	<path class="st0" d="M605.5,287.5h2.9v-7.3c0-4,1.7-6.5,4.4-6.5c0.5,0,1.1,0.1,1.6,0.3v-2.6c-0.6-0.1-1.1-0.2-1.9-0.2
		c-1.7,0-3.4,1.2-4.2,2.8h-0.1v-2.5h-2.7V287.5z"/>
</g>
</svg>
