<?xml version="1.0" encoding="UTF-8"?>
<svg width="632px" height="322px" viewBox="251 406 632 322" xmlns="http://www.w3.org/2000/svg" xmlns:xlink="http://www.w3.org/1999/xlink" version="1.1">
 <!-- Generated by Pixelmator Pro 2.2 -->
 <g id="logo">
  <path id="path14" d="M775.925 492.2 L775.925 544.404 C775.908 544.704 775.908 544.987 775.908 545.287 775.908 514.96 751.332 490.365 720.987 490.365 L720.987 490.172 C690.66 490.172 666.067 514.765 666.067 545.092 666.067 559.364 662.133 572.737 655.341 584.169 642.003 606.523 617.585 621.5 589.676 621.5 561.749 621.5 537.313 606.523 524.012 584.169 530.804 572.737 534.739 559.364 534.739 545.092 534.739 575.437 559.332 600.029 589.676 600.029 619.861 600.029 644.596 575.56 644.596 545.092 644.596 530.82 648.495 517.464 655.341 506.032 668.643 483.68 693.077 468.701 720.987 468.701 L720.987 468.895 C742.564 468.895 762.024 477.823 775.925 492.2" fill="#ba1030" fill-opacity="1" stroke="none"/>
  <path id="path16" d="M883.26 492.172 L840.319 492.172 840.319 470.701 861.791 470.701 C873.645 470.701 883.26 480.316 883.26 492.172" fill="#ba1030" fill-opacity="1" stroke="none"/>
  <path id="path18" d="M840.356 619.5 C828.481 619.5 818.884 609.885 818.884 598.029 818.839 530.064 818.849 568.26 818.849 413.747 830.704 413.747 840.319 423.361 840.319 435.216 840.319 620.544 840.308 589.311 840.356 619.5" fill="#783291" fill-opacity="1" stroke="none"/>
  <path id="path20" d="M797.396 413.747 L797.396 545.092 C797.396 587.285 763.187 621.5 720.987 621.5 693.077 621.5 668.643 606.523 655.341 584.169 662.133 572.737 666.067 559.364 666.067 545.092 666.067 575.437 690.66 600.029 720.987 600.029 751.192 600.029 775.925 575.56 775.925 545.092 L775.925 435.216 C775.925 423.343 785.54 413.747 797.396 413.747" fill="#783291" fill-opacity="1" stroke="none"/>
  <path id="path22" d="M403.537 684.173 C403.751 696.329 398.897 707.356 390.959 715.295 383.215 723.075 372.435 727.873 360.597 727.873 L315.027 727.873 C300.967 727.873 288.511 721.135 280.677 710.691 277.008 705.821 276.408 699.293 279.143 693.841 281.86 688.372 287.435 684.932 293.539 684.932 L293.556 684.932 C293.556 696.788 303.189 706.403 315.027 706.403 L359.944 706.403 C371.781 706.403 382.067 696.735 382.067 684.915 382.067 673.196 372.555 663.461 360.597 663.461 L282.319 663.461 C264.817 663.461 250.633 649.26 250.633 631.759 L250.633 631.741 C250.633 622.831 260.857 617.699 268.028 623.096 269.756 624.419 271.539 625.672 273.356 626.855 272.544 628.301 272.104 629.976 272.104 631.759 272.104 637.492 276.725 641.991 282.319 641.991 L359.609 641.991 C383.215 641.991 403.132 660.585 403.537 684.173" fill="#783291" fill-opacity="1" stroke="none"/>
  <path id="path24" d="M392.688 584.177 C399.499 572.745 403.415 559.372 403.415 545.1 403.415 575.444 428.008 600.037 458.335 600.037 488.556 600.037 513.255 575.568 513.255 545.1 513.255 530.828 517.172 517.472 524.017 506.04 537.319 483.688 561.753 468.709 589.681 468.709 617.591 468.709 642.008 483.688 655.347 506.04 648.501 517.472 644.601 530.828 644.601 545.1 644.601 514.773 619.991 490.18 589.681 490.18 559.336 490.18 534.744 514.773 534.744 545.1 534.744 559.372 530.809 572.745 524.017 584.177 510.68 606.529 486.263 621.508 458.335 621.508 430.407 621.508 405.991 606.529 392.688 584.177" fill="#783291" fill-opacity="1" stroke="none"/>
  <path id="path26" d="M497.189 443.501 C501.381 439.315 503.303 433.365 502.355 427.517 501.405 421.668 497.7 416.631 492.399 413.983 482.136 408.857 470.557 405.973 458.308 405.973 446.044 405.973 434.453 408.864 424.184 414.001 418.892 416.649 415.196 421.677 414.248 427.516 413.299 433.356 415.212 439.299 419.392 443.484 L419.46 443.552 C429.392 433.601 443.136 427.445 458.308 427.445 473.445 427.445 487.207 433.584 497.156 443.535 Z" fill="#783291" fill-opacity="1" stroke="none"/>
  <path id="path28" d="M628.535 443.501 C632.728 439.315 634.649 433.365 633.7 427.517 632.751 421.668 629.047 416.631 623.747 413.983 613.481 408.857 601.905 405.973 589.655 405.973 577.391 405.973 565.799 408.865 555.528 414.003 550.237 416.649 546.541 421.677 545.593 427.517 544.644 433.357 546.559 439.3 550.74 443.485 L550.807 443.552 C560.739 433.601 574.483 427.445 589.655 427.445 604.792 427.445 618.553 433.584 628.503 443.535 Z" fill="#ba1030" fill-opacity="1" stroke="none"/>
  <path id="path30" d="M381.944 545.1 C381.944 514.773 357.333 490.18 327.005 490.18 296.679 490.18 272.068 514.773 272.068 545.1 272.068 574.968 295.92 599.261 325.612 600.02 291.475 599.403 262.805 576.415 253.649 545.1 252.661 541.624 251.885 538.043 251.373 534.373 256.56 497.272 288.457 468.709 327.005 468.709 354.916 468.709 379.351 483.688 392.688 506.04 385.861 517.472 381.944 530.828 381.944 545.1" fill="#783291" fill-opacity="1" stroke="none"/>
  <path id="path32" d="M251.373 534.373 C251.885 538.043 252.661 541.624 253.649 545.1 262.805 576.415 291.475 599.403 325.612 600.02 326.088 600.037 326.529 600.037 327.005 600.037 327.483 600.037 327.959 600.037 328.435 600.02 357.985 599.279 381.944 575.092 381.944 545.1 381.944 530.828 385.861 517.472 392.688 506.04 406.227 483.388 430.712 468.709 458.335 468.709 486.263 468.709 510.68 483.688 524.017 506.04 517.172 517.472 513.255 530.828 513.255 545.1 513.255 514.773 488.68 490.18 458.335 490.18 428.008 490.18 403.415 514.773 403.415 545.1 403.415 559.372 399.499 572.745 392.688 584.177 379.351 606.529 354.916 621.508 327.005 621.508 284.824 621.508 250.597 587.3 250.597 545.1 250.597 541.465 250.861 537.884 251.373 534.373" fill="#ba1030" fill-opacity="1" stroke="none"/>
 </g>
</svg>
