<svg width="618" height="84" viewBox="0 0 618 84" fill="none" xmlns="http://www.w3.org/2000/svg">
<path d="M408.72 17.3501C411.06 17.3501 412.85 17.9401 414.11 19.1301C415.37 20.3201 416 22.1301 416 24.5601C416 25.8301 415.86 26.9601 415.58 27.9501C415.3 28.9301 414.86 29.7601 414.26 30.4301C413.67 31.1001 412.91 31.6101 411.99 31.9701C411.07 32.3301 409.98 32.5001 408.72 32.5001H403.52V17.3401H408.72V17.3501ZM408.89 30.8101C409.12 30.8101 409.4 30.7901 409.74 30.7601C410.08 30.7301 410.44 30.6401 410.82 30.5001C411.2 30.3701 411.58 30.1701 411.95 29.9201C412.33 29.6701 412.66 29.3201 412.96 28.8801C413.26 28.4401 413.5 27.9001 413.69 27.2401C413.88 26.5801 413.98 25.7901 413.98 24.8501C413.98 23.9401 413.89 23.1301 413.71 22.4201C413.53 21.7001 413.24 21.1001 412.84 20.5901C412.44 20.0901 411.92 19.7101 411.28 19.4401C410.64 19.1801 409.86 19.0501 408.92 19.0501H405.52V30.8101H408.89V30.8101Z" fill="#E2E967"/>
<path d="M430.73 17.3501V19.0501H422.28V23.8701H430.16V25.5701H422.28V30.8101H430.79V32.5101H420.26V17.3501H430.73V17.3501Z" fill="#E2E967"/>
<path d="M437.06 17.3501V30.8101H445.08V32.5101H435.04V17.3501H437.06V17.3501Z" fill="#E2E967"/>
<path d="M450.75 17.3501V32.5101H448.74V17.3501H450.75Z" fill="#E2E967"/>
<path d="M459.62 32.5101L454.29 17.3501H456.46L460.79 30.4901H460.83L465.2 17.3501H467.3L461.91 32.5101H459.62Z" fill="#E2E967"/>
<path d="M481.18 17.3501V19.0501H472.73V23.8701H480.61V25.5701H472.73V30.8101H481.24V32.5101H470.71V17.3501H481.18V17.3501Z" fill="#E2E967"/>
<path d="M492.62 17.3501C494.06 17.3501 495.19 17.7101 496.01 18.4101C496.83 19.1201 497.23 20.0901 497.23 21.3201C497.23 22.2401 497.02 23.0501 496.6 23.7401C496.19 24.4301 495.52 24.9001 494.6 25.1601V25.2001C495.04 25.2901 495.39 25.4301 495.67 25.6201C495.95 25.8201 496.16 26.0601 496.33 26.3301C496.5 26.6101 496.61 26.9101 496.69 27.2501C496.77 27.5901 496.83 27.9401 496.87 28.3101C496.9 28.6801 496.92 29.0501 496.94 29.4301C496.95 29.8101 496.99 30.1901 497.04 30.5601C497.1 30.9301 497.18 31.2801 497.29 31.6101C497.4 31.9401 497.56 32.2401 497.77 32.4901H495.52C495.38 32.3301 495.28 32.1201 495.23 31.8501C495.18 31.5801 495.15 31.2801 495.13 30.9501C495.12 30.6101 495.1 30.2601 495.09 29.8801C495.08 29.5001 495.03 29.1201 494.96 28.7601C494.9 28.3901 494.83 28.0401 494.75 27.7101C494.66 27.3701 494.53 27.0801 494.35 26.8401C494.17 26.5901 493.93 26.3901 493.63 26.2501C493.33 26.1001 492.94 26.0301 492.44 26.0301H487.52V32.5001H485.5V17.3401H492.62V17.3501ZM493.05 24.2301C493.48 24.1601 493.85 24.0201 494.17 23.8201C494.49 23.6201 494.74 23.3401 494.93 22.9901C495.12 22.6401 495.22 22.2001 495.22 21.6401C495.22 20.8801 495.01 20.2501 494.58 19.7701C494.16 19.2901 493.47 19.0501 492.52 19.0501H487.51V24.3401H491.71C492.18 24.3401 492.62 24.3001 493.05 24.2301Z" fill="#E2E967"/>
<path d="M503.94 17.3501V32.5101H501.92V17.3501H503.94Z" fill="#E2E967"/>
<path d="M511.26 17.3501L519.24 29.6401H519.28V17.3501H521.19V32.5101H518.98L511.06 20.3501H511.02V32.5101H509.11V17.3501H511.26Z" fill="#E2E967"/>
<path d="M535.39 32.33C534.51 32.68 533.63 32.85 532.74 32.85C531.61 32.85 530.6 32.64 529.71 32.22C528.82 31.8 528.06 31.24 527.44 30.53C526.82 29.82 526.34 29.01 526.02 28.09C525.69 27.17 525.53 26.21 525.53 25.23C525.53 24.12 525.68 23.07 525.99 22.08C526.29 21.08 526.75 20.21 527.35 19.46C527.95 18.71 528.7 18.11 529.6 17.67C530.5 17.22 531.55 17 532.75 17C533.57 17 534.35 17.09 535.08 17.29C535.81 17.48 536.46 17.78 537.03 18.19C537.6 18.6 538.09 19.12 538.47 19.75C538.86 20.38 539.13 21.14 539.27 22.03H537.25C537.15 21.45 536.97 20.95 536.7 20.53C536.43 20.11 536.1 19.77 535.7 19.5C535.31 19.23 534.86 19.03 534.35 18.9C533.85 18.77 533.31 18.7 532.75 18.7C531.83 18.7 531.04 18.89 530.38 19.25C529.72 19.62 529.18 20.1 528.77 20.7C528.36 21.3 528.04 21.99 527.85 22.76C527.65 23.53 527.55 24.32 527.55 25.13C527.55 25.92 527.66 26.68 527.89 27.41C528.12 28.14 528.45 28.79 528.89 29.34C529.33 29.9 529.87 30.3501 530.51 30.6801C531.16 31.0101 531.9 31.1801 532.75 31.1801C533.54 31.1801 534.24 31.05 534.85 30.8C535.46 30.55 535.97 30.2 536.39 29.75C536.81 29.3 537.12 28.7801 537.34 28.1801C537.55 27.5801 537.64 26.93 537.61 26.23H532.77V24.53H539.41V32.51H538.14L537.61 30.62C537.01 31.41 536.27 31.98 535.39 32.33Z" fill="#E2E967"/>
<path d="M408.72 42.8201C411.06 42.8201 412.85 43.4101 414.11 44.6001C415.37 45.7901 416 47.6001 416 50.0301C416 51.3001 415.86 52.4301 415.58 53.4201C415.3 54.4001 414.86 55.2301 414.26 55.9001C413.67 56.5701 412.91 57.0801 411.99 57.4401C411.07 57.8001 409.98 57.9701 408.72 57.9701H403.52V42.8101H408.72V42.8201ZM408.89 56.2801C409.12 56.2801 409.4 56.2601 409.74 56.2301C410.08 56.2001 410.44 56.1101 410.82 55.9701C411.2 55.8401 411.58 55.6401 411.95 55.3901C412.33 55.1401 412.66 54.7901 412.96 54.3501C413.26 53.9101 413.5 53.3701 413.69 52.7101C413.88 52.0501 413.98 51.2601 413.98 50.3201C413.98 49.4101 413.89 48.6001 413.71 47.8901C413.53 47.1701 413.24 46.5701 412.84 46.0601C412.44 45.5601 411.92 45.1801 411.28 44.9101C410.64 44.6501 409.86 44.5201 408.92 44.5201H405.52V56.2801H408.89V56.2801Z" fill="#E2E967"/>
<path d="M422.37 42.8201V57.9801H420.35V42.8201H422.37Z" fill="#E2E967"/>
<path d="M436.69 57.8C435.81 58.15 434.93 58.3199 434.04 58.3199C432.91 58.3199 431.89 58.1099 431 57.6899C430.11 57.2699 429.35 56.7099 428.73 55.9999C428.11 55.2899 427.63 54.4799 427.31 53.5599C426.99 52.6399 426.82 51.68 426.82 50.7C426.82 49.59 426.97 48.54 427.28 47.55C427.58 46.55 428.04 45.68 428.64 44.93C429.24 44.18 429.99 43.58 430.89 43.14C431.79 42.69 432.84 42.47 434.04 42.47C434.86 42.47 435.64 42.5599 436.37 42.7599C437.1 42.9499 437.75 43.25 438.32 43.66C438.89 44.07 439.37 44.59 439.76 45.22C440.15 45.85 440.41 46.6099 440.55 47.4999H438.53C438.43 46.9199 438.25 46.4199 437.98 45.9999C437.71 45.5799 437.38 45.24 436.98 44.97C436.58 44.7 436.13 44.4999 435.63 44.3699C435.13 44.2399 434.59 44.17 434.03 44.17C433.11 44.17 432.32 44.36 431.66 44.72C431 45.09 430.46 45.57 430.05 46.17C429.63 46.77 429.32 47.46 429.13 48.23C428.93 49 428.83 49.79 428.83 50.6C428.83 51.39 428.94 52.1499 429.17 52.8799C429.39 53.6099 429.73 54.2599 430.17 54.8099C430.61 55.3699 431.15 55.82 431.79 56.15C432.43 56.48 433.18 56.65 434.03 56.65C434.82 56.65 435.52 56.52 436.13 56.27C436.74 56.02 437.25 55.67 437.67 55.22C438.08 54.77 438.4 54.25 438.61 53.65C438.82 53.05 438.91 52.4 438.89 51.7H434.05V49.9999H440.69V57.98H439.42L438.89 56.09C438.31 56.89 437.57 57.45 436.69 57.8Z" fill="#E2E967"/>
<path d="M447.58 42.8201V57.9801H445.56V42.8201H447.58Z" fill="#E2E967"/>
<path d="M451.17 44.5201V42.8201H463.29V44.5201H458.24V57.9801H456.22V44.5201H451.17Z" fill="#E2E967"/>
<path d="M471.17 42.8201L477.09 57.9801H474.86L473.2 53.4201H466.79L465.09 57.9801H463.03L468.93 42.8201H471.17ZM472.57 51.7201L470.04 44.6501H470L467.43 51.7201H472.57Z" fill="#E2E967"/>
<path d="M482.39 42.8201V56.2801H490.41V57.9801H480.37V42.8201H482.39V42.8201Z" fill="#E2E967"/>
<path d="M403.52 70.0002V68.3003H415.64V70.0002H410.59V83.4603H408.57V70.0002H403.52Z" fill="#E2E967"/>
<path d="M426.25 68.3003C427.69 68.3003 428.82 68.6603 429.64 69.3603C430.46 70.0703 430.86 71.0403 430.86 72.2703C430.86 73.1903 430.65 74.0002 430.23 74.6902C429.82 75.3802 429.15 75.8503 428.23 76.1103V76.1503C428.67 76.2403 429.02 76.3803 429.3 76.5703C429.58 76.7703 429.79 77.0103 429.96 77.2803C430.13 77.5603 430.24 77.8603 430.32 78.2003C430.4 78.5403 430.46 78.8903 430.5 79.2603C430.53 79.6303 430.55 80.0002 430.57 80.3802C430.58 80.7602 430.62 81.1403 430.67 81.5103C430.73 81.8803 430.81 82.2302 430.92 82.5602C431.03 82.8902 431.19 83.1902 431.4 83.4402H429.15C429.01 83.2802 428.91 83.0703 428.86 82.8003C428.81 82.5303 428.78 82.2303 428.76 81.9003C428.75 81.5603 428.73 81.2103 428.72 80.8303C428.71 80.4503 428.66 80.0703 428.59 79.7103C428.53 79.3403 428.46 78.9903 428.38 78.6603C428.29 78.3203 428.16 78.0303 427.98 77.7903C427.8 77.5403 427.56 77.3403 427.26 77.2003C426.96 77.0603 426.57 76.9803 426.07 76.9803H421.15V83.4503H419.13V68.3003H426.25ZM426.68 75.1803C427.1 75.1103 427.48 74.9703 427.8 74.7703C428.12 74.5703 428.37 74.2902 428.56 73.9402C428.75 73.5902 428.85 73.1503 428.85 72.5903C428.85 71.8303 428.64 71.2003 428.21 70.7203C427.79 70.2403 427.1 70.0002 426.15 70.0002H421.14V75.2903H425.34C425.81 75.2803 426.25 75.2403 426.68 75.1803Z" fill="#E2E967"/>
<path d="M441.81 68.3003L447.73 83.4603H445.5L443.84 78.9003H437.43L435.73 83.4603H433.67L439.57 68.3003H441.81ZM443.21 77.1902L440.68 70.1202H440.64L438.07 77.1902H443.21Z" fill="#E2E967"/>
<path d="M453.14 68.3003L461.12 80.5903H461.16V68.3003H463.07V83.4603H460.86L452.94 71.3003H452.9V83.4603H450.99V68.3003H453.14Z" fill="#E2E967"/>
<path d="M475.74 70.3701C475.07 69.8801 474.21 69.6401 473.16 69.6401C472.74 69.6401 472.32 69.6801 471.91 69.7701C471.5 69.8601 471.14 70.0001 470.82 70.1901C470.5 70.3901 470.25 70.6502 470.05 70.9802C469.86 71.3202 469.76 71.7302 469.76 72.2202C469.76 72.6902 469.9 73.0702 470.17 73.3602C470.45 73.6502 470.82 73.8901 471.28 74.0701C471.74 74.2601 472.26 74.4102 472.84 74.5302C473.42 74.6502 474.01 74.7802 474.61 74.9202C475.21 75.0602 475.8 75.2302 476.38 75.4202C476.96 75.6102 477.48 75.8701 477.94 76.2001C478.4 76.5201 478.77 76.9402 479.04 77.4302C479.32 77.9302 479.45 78.5502 479.45 79.3002C479.45 80.1002 479.27 80.8001 478.91 81.3701C478.55 81.9401 478.08 82.4101 477.52 82.7701C476.95 83.1301 476.32 83.4001 475.62 83.5601C474.92 83.7201 474.22 83.8002 473.53 83.8002C472.68 83.8002 471.88 83.7002 471.12 83.4802C470.36 83.2702 469.7 82.9501 469.12 82.5201C468.54 82.0901 468.09 81.5402 467.76 80.8602C467.43 80.1902 467.26 79.3902 467.26 78.4702H469.17C469.17 79.1102 469.29 79.6502 469.54 80.1102C469.79 80.5702 470.11 80.9501 470.52 81.2501C470.92 81.5501 471.39 81.7702 471.93 81.9102C472.47 82.0502 473.02 82.1201 473.58 82.1201C474.04 82.1201 474.49 82.0802 474.95 81.9902C475.41 81.9002 475.82 81.7602 476.19 81.5502C476.56 81.3502 476.86 81.0701 477.08 80.7101C477.31 80.3601 477.42 79.9102 477.42 79.3502C477.42 78.8302 477.28 78.4001 477.01 78.0801C476.73 77.7501 476.36 77.4902 475.9 77.2802C475.44 77.0802 474.92 76.9102 474.34 76.7802C473.76 76.6502 473.17 76.5201 472.57 76.3901C471.97 76.2601 471.38 76.1002 470.8 75.9202C470.22 75.7402 469.7 75.5102 469.24 75.2202C468.78 74.9302 468.41 74.5602 468.14 74.1002C467.86 73.6402 467.73 73.0601 467.73 72.3701C467.73 71.6101 467.89 70.9401 468.2 70.3801C468.51 69.8201 468.93 69.3601 469.44 69.0001C469.96 68.6401 470.55 68.3701 471.2 68.2001C471.86 68.0201 472.53 67.9302 473.23 67.9302C474.01 67.9302 474.73 68.0201 475.4 68.2101C476.06 68.3901 476.65 68.6801 477.15 69.0801C477.65 69.4701 478.05 69.9701 478.34 70.5801C478.63 71.1801 478.79 71.9002 478.82 72.7302H476.91C476.8 71.6402 476.41 70.8601 475.74 70.3701Z" fill="#E2E967"/>
<path d="M493.67 68.3003V70.0002H485.73V74.8203H492.69V76.5203H485.73V83.4603H483.71V68.3003H493.67Z" fill="#E2E967"/>
<path d="M497.3 72.8901C497.6 71.9401 498.06 71.0902 498.67 70.3502C499.28 69.6102 500.03 69.0301 500.94 68.5901C501.85 68.1501 502.9 67.9302 504.1 67.9302C505.3 67.9302 506.36 68.1501 507.26 68.5901C508.17 69.0301 508.93 69.6202 509.53 70.3502C510.14 71.0902 510.59 71.9301 510.9 72.8901C511.2 73.8501 511.36 74.8401 511.36 75.8701C511.36 76.9001 511.21 77.8902 510.9 78.8502C510.6 79.8002 510.14 80.6501 509.53 81.3901C508.92 82.1301 508.17 82.7101 507.26 83.1401C506.35 83.5701 505.3 83.7902 504.1 83.7902C502.9 83.7902 501.84 83.5801 500.94 83.1401C500.03 82.7101 499.27 82.1201 498.67 81.3901C498.06 80.6501 497.61 79.8102 497.3 78.8502C497 77.8902 496.84 76.9001 496.84 75.8701C496.84 74.8401 497 73.8501 497.3 72.8901ZM499.16 78.1401C499.36 78.8801 499.67 79.5501 500.1 80.1501C500.52 80.7401 501.07 81.2201 501.73 81.5801C502.39 81.9401 503.19 82.1201 504.11 82.1201C505.03 82.1201 505.82 81.9401 506.49 81.5801C507.16 81.2201 507.7 80.7401 508.12 80.1501C508.54 79.5601 508.86 78.8901 509.06 78.1401C509.26 77.4001 509.36 76.6401 509.36 75.8801C509.36 75.1101 509.26 74.3601 509.06 73.6201C508.86 72.8801 508.55 72.2101 508.12 71.6201C507.7 71.0301 507.15 70.5501 506.49 70.1901C505.83 69.8301 505.03 69.6501 504.11 69.6501C503.19 69.6501 502.4 69.8301 501.73 70.1901C501.06 70.5501 500.52 71.0301 500.1 71.6201C499.68 72.2101 499.36 72.8801 499.16 73.6201C498.96 74.3601 498.86 75.1201 498.86 75.8801C498.86 76.6401 498.96 77.3901 499.16 78.1401Z" fill="#E2E967"/>
<path d="M522.77 68.3003C524.21 68.3003 525.34 68.6603 526.16 69.3603C526.97 70.0703 527.38 71.0403 527.38 72.2703C527.38 73.1903 527.17 74.0002 526.75 74.6902C526.33 75.3802 525.66 75.8503 524.74 76.1103V76.1503C525.18 76.2403 525.54 76.3803 525.81 76.5703C526.08 76.7703 526.3 77.0103 526.47 77.2803C526.64 77.5503 526.75 77.8603 526.83 78.2003C526.91 78.5403 526.97 78.8903 527.01 79.2603C527.04 79.6303 527.06 80.0002 527.07 80.3802C527.08 80.7602 527.12 81.1403 527.18 81.5103C527.24 81.8803 527.32 82.2302 527.42 82.5602C527.53 82.8902 527.69 83.1902 527.9 83.4402H525.65C525.51 83.2802 525.42 83.0703 525.37 82.8003C525.32 82.5303 525.29 82.2303 525.27 81.9003C525.26 81.5603 525.24 81.2103 525.23 80.8303C525.21 80.4503 525.17 80.0703 525.1 79.7103C525.04 79.3403 524.97 78.9903 524.89 78.6603C524.81 78.3203 524.67 78.0303 524.49 77.7903C524.3 77.5403 524.07 77.3403 523.77 77.2003C523.47 77.0603 523.08 76.9803 522.58 76.9803H517.65V83.4503H515.63V68.3003H522.77ZM523.19 75.1803C523.61 75.1103 523.98 74.9703 524.3 74.7703C524.62 74.5703 524.87 74.2902 525.06 73.9402C525.25 73.5902 525.35 73.1503 525.35 72.5903C525.35 71.8303 525.14 71.2003 524.71 70.7203C524.29 70.2403 523.6 70.0002 522.65 70.0002H517.64V75.2903H521.84C522.32 75.2803 522.77 75.2403 523.19 75.1803Z" fill="#E2E967"/>
<path d="M534.78 68.3003L539.55 81.0403L544.35 68.3003H547.11V83.4603H545.2V70.8503H545.16L540.43 83.4603H538.71L533.98 70.8503H533.94V83.4603H532.03V68.3003H534.78Z" fill="#E2E967"/>
<path d="M558.62 68.3003L564.54 83.4603H562.31L560.66 78.9003H554.25L552.55 83.4603H550.49L556.39 68.3003H558.62ZM560.02 77.1902L557.49 70.1202H557.45L554.88 77.1902H560.02Z" fill="#E2E967"/>
<path d="M564.26 70.0002V68.3003H576.38V70.0002H571.33V83.4603H569.31V70.0002H564.26Z" fill="#E2E967"/>
<path d="M581.96 68.3003V83.4603H579.95V68.3003H581.96Z" fill="#E2E967"/>
<path d="M586.77 72.8901C587.07 71.9401 587.53 71.0902 588.14 70.3502C588.75 69.6102 589.5 69.0301 590.41 68.5901C591.32 68.1501 592.37 67.9302 593.57 67.9302C594.77 67.9302 595.83 68.1501 596.73 68.5901C597.64 69.0301 598.4 69.6202 599 70.3502C599.61 71.0902 600.06 71.9301 600.37 72.8901C600.67 73.8501 600.83 74.8401 600.83 75.8701C600.83 76.9001 600.68 77.8902 600.37 78.8502C600.07 79.8002 599.61 80.6501 599 81.3901C598.39 82.1301 597.64 82.7101 596.73 83.1401C595.82 83.5701 594.77 83.7902 593.57 83.7902C592.37 83.7902 591.31 83.5801 590.41 83.1401C589.5 82.7101 588.74 82.1201 588.14 81.3901C587.53 80.6501 587.08 79.8102 586.77 78.8502C586.47 77.8902 586.31 76.9001 586.31 75.8701C586.31 74.8401 586.47 73.8501 586.77 72.8901ZM588.63 78.1401C588.83 78.8801 589.14 79.5501 589.57 80.1501C589.99 80.7401 590.54 81.2201 591.2 81.5801C591.86 81.9401 592.66 82.1201 593.58 82.1201C594.5 82.1201 595.29 81.9401 595.96 81.5801C596.63 81.2201 597.17 80.7401 597.59 80.1501C598.01 79.5601 598.33 78.8901 598.53 78.1401C598.73 77.4001 598.83 76.6401 598.83 75.8801C598.83 75.1101 598.73 74.3601 598.53 73.6201C598.33 72.8801 598.02 72.2101 597.59 71.6201C597.17 71.0301 596.62 70.5501 595.96 70.1901C595.3 69.8301 594.5 69.6501 593.58 69.6501C592.66 69.6501 591.87 69.8301 591.2 70.1901C590.53 70.5501 589.99 71.0301 589.57 71.6201C589.15 72.2101 588.83 72.8801 588.63 73.6201C588.43 74.3601 588.33 75.1201 588.33 75.8801C588.33 76.6401 588.43 77.3901 588.63 78.1401Z" fill="#E2E967"/>
<path d="M607.22 68.3003L615.2 80.5903H615.24V68.3003H617.15V83.4603H614.94L607.02 71.3003H606.98V83.4603H605.07V68.3003H607.22Z" fill="#E2E967"/>
<path d="M157.56 0.0100098H100.87V17.39H167.01L167 17.4H166.94V66.03H100.87V83.45L157.57 83.44C172.34 83.44 184.32 71.46 184.32 56.69V26.77C184.32 11.99 172.34 0.0100098 157.56 0.0100098Z" fill="#E2E967"/>
<path d="M319.97 17.39V66.03H386.05V83.45L329.35 83.43C314.58 83.43 302.61 71.46 302.61 56.68V26.76C302.61 11.98 314.59 0 329.36 0H386.05V17.38H319.97V17.39Z" fill="#E2E967"/>
<path d="M100.87 83.45H118.29V0.0100098H100.89L100.87 83.45Z" fill="#E2E967"/>
<path d="M0 83.45H17.42V17.53H0.0200195L0 83.45Z" fill="#E2E967"/>
<path d="M83.4497 26.84V83.45H66.0697V17.53H17.4297V0L56.7597 0.0799866C71.4997 0.129987 83.4497 12.1 83.4497 26.84Z" fill="#E2E967"/>
<path d="M277.8 7.39001C273.24 2.83001 266.94 0.0100098 259.98 0.0100098H201.74V33.04H219.12V17.39H267.81V33.04H283.94C284.75 30.58 285.18 27.95 285.18 25.22C285.19 18.25 282.36 11.95 277.8 7.39001Z" fill="#E2E967"/>
<path d="M285.19 25.2199C285.19 22.4899 284.76 19.8599 283.95 17.3999H267.82V33.0499H219.13V17.3999H201.75V50.4299H259.99C266.95 50.4299 273.25 47.6099 277.81 43.0499C282.37 38.4899 285.19 32.1799 285.19 25.2199Z" fill="#E2E967"/>
<path d="M277.8 40.42C273.24 35.86 266.94 33.04 259.98 33.04H201.74V66.07H219.12V50.42H267.81V66.07H283.94C284.75 63.61 285.18 60.98 285.18 58.25C285.19 51.28 282.36 44.98 277.8 40.42Z" fill="#E2E967"/>
<path d="M285.19 58.2501C285.19 55.5201 284.76 52.8902 283.95 50.4302H267.82V66.0801H219.13V50.4302H201.75V83.4601H259.99C266.95 83.4601 273.25 80.6401 277.81 76.0801C282.37 71.5201 285.19 65.2101 285.19 58.2501Z" fill="#E2E967"/>
</svg>
