<svg viewBox="0 0 103 36" fill="none" xmlns="http://www.w3.org/2000/svg"><path fill-rule="evenodd" clip-rule="evenodd" d="M84.307 14.561v6.888h2.656v-7.418h.856c1.059 0 1.424.167 1.701.776.183.402.202.727.204 3.543l.002 3.1h2.67l-.033-3.577c-.032-3.498-.038-3.588-.28-4.078a2.85 2.85 0 00-.655-.822c-.735-.58-1.081-.669-2.844-.72l-1.62-.049V7.673h-2.657v6.888zM49.74 12.233c-1.896.476-2.947 2.215-2.944 4.867.003 1.925.461 3.152 1.423 3.812.688.472 1.126.552 2.823.517l1.537-.033.296-.794c.162-.438.322-.879.356-.98.055-.171-.054-.186-1.332-.186-.941 0-1.505-.047-1.742-.146-.38-.158-.705-.698-.705-1.168v-.276h5.525v-1.065c0-1.45-.226-2.382-.78-3.205-.37-.55-.558-.716-1.157-1.019-.654-.331-.807-.364-1.806-.393-.6-.017-1.273.014-1.494.07zm19.105.106c-.782.248-1.656.979-2.014 1.682-.51 1.005-.611 1.591-.572 3.328.033 1.503.056 1.652.334 2.246.35.747.693 1.132 1.349 1.52.458.27.554.283 2.245.316l1.767.036.332-.915c.182-.504.332-.957.332-1.008 0-.05-.693-.108-1.54-.127-1.499-.033-1.545-.041-1.817-.313-.193-.192-.297-.43-.335-.768l-.055-.49h5.553v-.905c0-3.237-1.352-4.83-4.084-4.811-.536.004-1.096.082-1.495.209zm-28.92.001c-.976.193-1.81.843-2.12 1.651-.121.316-.161.678-.132 1.192.037.648.092.81.449 1.328.606.878 1.198 1.135 2.75 1.195 1.411.055 1.604.087 1.824.307.248.247.215.923-.056 1.168-.196.177-.449.208-2.036.255l-1.812.053-.355.953c-.195.525-.355.97-.355.987 0 .019 1.182.019 2.63 0 2.5-.031 2.656-.045 3.186-.284.61-.275 1.24-.896 1.473-1.453.082-.195.149-.66.149-1.034 0-1.194-.451-2.053-1.355-2.581-.456-.267-.616-.296-1.936-.35-.796-.033-1.54-.116-1.665-.186-.409-.228-.483-.802-.155-1.206.194-.24.278-.253 1.871-.304l1.668-.053.308-.841c.169-.463.307-.857.307-.875 0-.073-4.232-.002-4.639.078zm19.225.002a3.246 3.246 0 00-2.385 1.984c-.225.558-.245.766-.246 2.62 0 1.948.008 2.032.276 2.6.365.777.843 1.304 1.455 1.605.438.215.704.252 2.147.298l1.647.053.036.316c.051.447-.165 1.091-.41 1.222-.115.061-.592.14-1.06.177-.468.036-.85.073-.85.082 0 .01-.145.412-.322.894l-.32.877 1.782-.036c1.579-.033 1.83-.063 2.207-.264.795-.427 1.34-1.227 1.505-2.213.049-.289.076-2.73.06-5.426l-.028-4.901-2.522.012c-1.387.006-2.724.051-2.972.1zm17.09.743c-.18.472-.328.878-.328.902 0 .025.837.044 1.86.044 1.022 0 1.858.036 1.856.08-.002.044-.91 1.313-2.02 2.822l-2.015 2.742v1.774H81.94l.333-.929c.184-.511.334-.964.334-1.007 0-.042-.861-.077-1.913-.077s-1.913-.024-1.913-.054c0-.029.887-1.242 1.97-2.696l1.97-2.643-.03-.88-.031-.88-3.045-.028-3.046-.028-.329.858zm19.934-.082c-.156.438-.284.849-.284.913 0 .079.541.115 1.7.115 1.559 0 1.718.018 1.913.212.228.228.276.638.11.947-.14.26-.47.371-2.06.694-1.651.336-2.41.607-2.9 1.036-1.137.995-1.1 3.033.07 3.841.86.596 1.07.627 4.435.666l3.108.037-.001-3.69c0-2.167-.045-3.85-.108-4.077-.132-.474-.789-1.09-1.345-1.26-.223-.068-1.294-.148-2.38-.178l-1.974-.054-.284.798zm-44.268 1.269c.467.31.733.85.733 1.481v.504H49.453v-.475c0-.706.258-1.25.721-1.518.538-.31 1.26-.307 1.733.008zm10.191 2.462v2.702h-1.004c-.553 0-1.126-.055-1.274-.122-.15-.068-.376-.34-.51-.61-.217-.44-.24-.637-.237-2.023.003-1.378.027-1.583.238-1.982.13-.244.32-.493.422-.553.103-.06.677-.11 1.276-.111l1.09-.004v2.703zm9.136-2.517c.475.24.746.718.822 1.453l.061.587h-3.354l.061-.587c.11-1.057.683-1.638 1.616-1.638.234 0 .591.083.794.185zm28.376 4.053v1.166h-1.386c-1.33 0-1.397-.01-1.647-.26-.325-.325-.334-.696-.022-.983.184-.17 2.54-1.023 2.975-1.078.044-.006.08.514.08 1.155zm-17.025 5.52a3.254 3.254 0 00-2.552 1.992c-.21.517-.241.783-.241 2.025 0 1.343.017 1.467.288 2.014.42.85.832 1.291 1.533 1.646.573.289.712.314 1.739.314 1.026 0 1.165-.025 1.738-.314.705-.357 1.119-.803 1.525-1.646.237-.493.288-.766.328-1.766.04-.996.012-1.301-.179-1.927-.533-1.75-2.115-2.635-4.179-2.338zm-13.909.098c-.936.158-1.655.734-2.103 1.686-.261.557-.277.684-.277 2.233 0 1.586.01 1.664.298 2.248.348.707 1.055 1.372 1.647 1.549.238.07 1.09.124 1.984.124h1.567l-.04.727c-.033.563-.105.822-.322 1.15-.395.595-.887.795-2.102.853-1.054.05-1.279.151-1.279.575 0 .174.113.192 1.196.191 1.034 0 1.266-.035 1.727-.251.638-.301 1.028-.697 1.32-1.337.206-.457.216-.678.218-5.166l.002-4.69-1.673.013c-.921.007-1.894.05-2.163.095zm7.565.007c-.915.18-1.7.913-1.918 1.793-.076.306-.107 1.465-.088 3.232l.03 2.755.4.033.398.033v-2.984c0-3.33.011-3.39.744-3.844.311-.193.567-.237 1.577-.27l1.206-.038.15-.356c.081-.196.148-.381.148-.412 0-.09-2.13-.043-2.647.058zm12.176-.044c-.04.039-.071 1.389-.071 3 0 2.913.001 2.93.267 3.461.281.564.886 1.076 1.529 1.294.223.075 1.127.122 2.364.122h2.004v-7.96l-.399.033-.398.033-.029 3.523-.028 3.523H92.06c-1.8 0-2.204-.115-2.669-.765-.244-.341-.249-.4-.28-3.34l-.033-2.994h-.295c-.162 0-.327.031-.366.07zm7.793 5.48v5.576h.744V31.728h1.52c1.42 0 1.556-.018 2.069-.273.648-.322 1.019-.729 1.393-1.528.251-.536.273-.7.274-2.014 0-1.74-.166-2.39-.792-3.1-.746-.845-1.133-.963-3.32-1.014l-1.888-.045v5.577zM84.8 24.85c.992.49 1.5 1.688 1.391 3.281-.097 1.418-.75 2.429-1.763 2.731-.528.158-1.627.158-2.155 0-.593-.177-1.192-.736-1.481-1.382-.214-.478-.252-.735-.255-1.727-.002-1.058.024-1.22.287-1.754.16-.324.41-.7.555-.836.712-.668 2.394-.822 3.421-.314zm-13.032 2.903v3.126l-1.621-.001c-2-.003-2.278-.113-2.787-1.106-.303-.59-.321-.697-.321-1.852 0-1.43.153-2.07.624-2.607.489-.557.948-.676 2.643-.681l1.462-.005v3.126zm28.66-2.788c.27.178.524.474.683.794.231.47.252.641.252 2.118v1.607l-.323.457c-.606.86-.82.938-2.562.938h-1.525v-3.055c0-1.68.035-3.091.08-3.135.043-.044.728-.064 1.522-.045 1.357.034 1.468.053 1.873.32z" fill="#333"/><path fill-rule="evenodd" clip-rule="evenodd" d="M9.823 2.874c1.522-1.003 2.994-1.587 4.826-1.917 3.148-.566 6.662.213 9.384 2.08.877.601 3.958 3.537 5.42 5.166 2.379 2.647 3.445 5.338 3.444 8.69-.001 2.756-.792 5.18-2.401 7.364-.873 1.184-5.43 5.688-6.47 6.395-2.072 1.408-4.185 2.113-6.627 2.21-2.327.093-4.1-.253-6.044-1.179-1.611-.767-2.58-1.555-5.387-4.384-3.202-3.226-3.873-4.16-4.629-6.433-.5-1.503-.611-2.268-.604-4.133.006-1.854.151-2.667.778-4.382.74-2.018 1.695-3.266 4.968-6.486 1.73-1.702 2.693-2.564 3.342-2.991zm8.853 4.266c1.573.401 2.131.784 4.403 3.018 2.313 2.274 2.94 3.096 3.38 4.433.241.738.285 1.057.287 2.09.002 1.057-.036 1.33-.29 2.065-.443 1.284-.921 1.964-2.555 3.64-2.881 2.955-4.04 3.808-5.714 4.201-.956.225-2.327.203-3.332-.053-1.434-.366-2.215-.894-4.228-2.86-.985-.961-2.025-2.041-2.312-2.4-.986-1.232-1.476-2.636-1.476-4.223 0-1.587.49-2.991 1.477-4.223.287-.358 1.447-1.557 2.577-2.665 1.67-1.636 2.199-2.088 2.817-2.413 1.531-.804 3.335-1.026 4.966-.61zm-9.753 8.58c.362-1.217.616-1.547 3.16-4.101 2.256-2.267 2.461-2.447 2.545-2.226.05.132.226.604.39 1.049l.298.808-1.958 1.947c-2.26 2.249-2.587 2.736-2.587 3.854 0 .518.067.79.323 1.301.58 1.155 1.504 1.738 2.758 1.738 1.144 0 1.528-.226 3.201-1.889.888-.882 1.477-1.392 1.522-1.319.04.066.215.535.387 1.042l.313.923-1.197 1.2c-1.409 1.413-2.202 1.88-3.512 2.068-3.042.437-5.814-1.978-5.814-5.064 0-.416.077-1.015.17-1.331zm6.613-2.036c1.284-1.26 1.866-1.645 2.914-1.927 1.175-.315 2.63-.14 3.736.45.858.456 1.707 1.369 2.16 2.32.354.743.397.931.435 1.872.052 1.288-.155 2.147-.728 3.013-.38.577-4.94 5.206-5.027 5.105-.077-.09-.71-1.814-.71-1.934 0-.066.905-1.028 2.012-2.137 2.28-2.285 2.445-2.536 2.447-3.713.004-1.76-1.29-3.069-3.025-3.063-1.17.004-1.566.237-3.252 1.912-1.216 1.207-1.459 1.405-1.526 1.24a37.178 37.178 0 01-.377-1.058l-.297-.864 1.238-1.216zm7.15-8.869c-.942-.63-2.238-1.215-3.308-1.493-1.69-.438-4.11-.368-5.755.168-2.044.666-2.889 1.29-6.047 4.47-3.163 3.184-3.61 3.817-4.312 6.124-.265.868-.291 1.111-.297 2.702-.006 1.504.027 1.875.237 2.65.322 1.192 1.147 2.852 1.848 3.72.812 1.006 5.34 5.374 6.066 5.851.838.551 2.035 1.081 3.082 1.364 1.258.34 3.982.34 5.231-.002.994-.27 2.622-1.028 3.392-1.578.77-.549 5.29-5.037 5.901-5.858 1.338-1.8 1.975-3.821 1.954-6.2-.01-1.105-.066-1.58-.283-2.406a10.306 10.306 0 00-1.745-3.634c-.842-1.105-5.092-5.293-5.965-5.878zm-7.611.173c-.952.203-2.098.679-2.946 1.223-.725.465-4.803 4.42-5.551 5.383-1.357 1.747-1.947 3.658-1.838 5.95.087 1.823.614 3.315 1.677 4.753.68.918 4.458 4.617 5.235 5.125 3.029 1.98 6.99 1.961 9.972-.046.83-.558 4.679-4.326 5.46-5.344a9.339 9.339 0 001.55-3.18c.3-1.118.328-3.17.056-4.185-.603-2.244-1.007-2.856-3.671-5.548-2.889-2.919-3.77-3.531-5.832-4.053-1.19-.3-2.915-.334-4.113-.078z" fill="#21812C"/></svg>