<svg width="258" height="259" viewBox="0 0 258 259" fill="none" xmlns="http://www.w3.org/2000/svg">
<path d="M258 57.084V258.5H228.682V29.8182H0V0.5H205.227C236.598 0.5 258 25.7136 258 57.084Z" fill="white"/>
<path d="M199.364 115.72V258.5H170.045V88.4545H0V59.1363H146.591C177.961 59.1363 199.364 84.3499 199.364 115.72Z" fill="white"/>
<path d="M140.727 258.5V174.357C140.727 142.986 119.325 117.773 87.9545 117.773H0V147.091H111.409V258.5H140.727Z" fill="white"/>
<path d="M85.6091 229.475V258.5H56.2909V202.209H0V172.891H32.8364C64.2069 172.891 85.6091 198.105 85.6091 229.475Z" fill="white"/>
<path d="M0 229.182H29.3182V258.5H0V229.182Z" fill="white"/>
</svg>
