<svg width="258" height="261" viewBox="0 0 258 261" fill="none" xmlns="http://www.w3.org/2000/svg">
<path d="M258 63.1562H236.067C211.872 63.1562 192.426 46.6314 192.426 22.4103V0H215.038V40.5196H258V63.1562Z" fill="white"/>
<path d="M192.427 256.246C205.994 249.682 215.038 236.779 215.038 220.254V153.929H192.427V238.137H22.6118V67.9098H104.24V45.4996L43.6408 45.2732C35.9527 45.2732 28.9431 47.0841 22.6118 50.0269C9.04473 56.5915 0 69.4944 0 86.0191V220.254C0 236.779 9.04473 249.682 22.6118 256.246C28.9431 259.415 35.9527 261 43.6408 261H171.398C179.086 261 186.095 259.189 192.427 256.246Z" fill="white"/>
<path d="M215.038 89.4144V108.882H192.426V68.3624H149.463V45.7258H177.276C186.095 46.1785 193.556 49.3477 199.662 54.5541L199.888 54.7805C209.385 62.7033 215.038 75.1534 215.038 89.4144Z" fill="white"/>
<path d="M156.248 118.163H58.7907V140.8H156.248V118.163Z" fill="white"/>
<path d="M58.7907 170.454H156.248V193.09H58.7907V170.454Z" fill="white"/>
</svg>
