<svg width="258" height="258" viewBox="0 0 258 258" fill="none" xmlns="http://www.w3.org/2000/svg">
<path d="M229.182 29.3182V28.8182H228.682H0.5V0.5H205.227C236.277 0.5 257.5 25.4426 257.5 56.584V257.5H229.182V29.3182ZM170.545 87.9545V87.4545H170.045H0.5V59.1363H146.591C177.64 59.1363 198.864 84.0789 198.864 115.22V257.5H170.545V87.9545ZM111.409 146.091H0.5V117.773H87.9545C119.004 117.773 140.227 142.715 140.227 173.857V257.5H111.909V146.591V146.091H111.409ZM56.7909 201.709V201.209H56.2909H0.5V172.891H32.8364C63.8858 172.891 85.1091 197.834 85.1091 228.975V257.5H56.7909V201.709ZM0.5 257.5V229.182H28.8182V257.5H0.5Z" stroke="#ECECEC"/>
</svg>
