<svg width="258" height="255" viewBox="0 0 258 255" fill="none" xmlns="http://www.w3.org/2000/svg">
<path fill-rule="evenodd" clip-rule="evenodd" d="M258 50.2685V124.277H232.148V44.3461L152.171 124.19L133.884 105.964L213.694 26.2868H133.912V0.5H211.467C238.87 0.5 258 22.6766 258 50.2685ZM232.059 26.2868L232.148 26.3758V26.2868H232.059Z" fill="white"/>
<path d="M26.1102 14.1668C18.0962 18.0348 11.6333 24.2237 7.23846 31.9597L94.6174 119.119H0V144.906H94.6174L7.23846 232.065C11.6333 239.801 18.0962 245.99 26.1102 249.858L113.231 162.957V254.5H139.082V162.957L204.746 228.713L223.876 247.795C231.115 243.154 237.061 236.707 240.938 228.713C240.938 228.713 240.938 228.455 241.197 228.455L220.515 207.826L145.287 132.528L126.932 114.22L125.898 113.446L112.972 100.553L47.3087 35.312L26.1102 14.1668Z" fill="white"/>
</svg>
