<svg width="258" height="261" viewBox="0 0 258 261" fill="none" xmlns="http://www.w3.org/2000/svg">
<path d="M214.538 40.5196V41.0196H215.038H257.5V62.6562H236.067C212.101 62.6562 192.926 46.3109 192.926 22.4103V0.5H214.538V40.5196ZM103.74 67.4098H22.6118H22.1118V67.9098V238.137V238.637H22.6118H192.427H192.927V238.137V154.429H214.538V220.254C214.538 236.575 205.615 249.308 192.212 255.795C185.94 258.709 179.003 260.5 171.398 260.5H43.6408C36.0236 260.5 29.0916 258.931 22.8356 255.799L22.8296 255.796C9.4247 249.31 0.5 236.576 0.5 220.254V86.0191C0.5 69.6988 9.42316 56.9653 22.8261 50.4787C29.0981 47.564 36.0347 45.7733 43.6399 45.7732C43.6402 45.7732 43.6405 45.7732 43.6408 45.7732L103.74 45.9977V67.4098ZM192.926 68.3624V67.8624H192.426H149.963V46.2258H177.263C185.956 46.6748 193.304 49.7952 199.322 54.9216L199.534 55.1339L199.55 55.1499L199.567 55.1644C208.939 62.9822 214.538 75.2853 214.538 89.4144V108.382H192.926V68.3624ZM59.2907 118.663H155.748V140.3H59.2907V118.663ZM59.2907 192.59V170.954H155.748V192.59H59.2907Z" stroke="#ECECEC"/>
</svg>
