<svg width="258" height="222" viewBox="0 0 258 222" fill="none" xmlns="http://www.w3.org/2000/svg">
<path d="M102.081 169.237H102.288L102.434 169.091L175.728 96.029L191.569 111.87L118.518 184.922C118.516 184.923 118.515 184.925 118.513 184.926C114.17 189.039 108.466 191.543 102.314 191.543H41.9512C17.3346 191.543 0.5 171.771 0.5 147.062V89.9621C0.5 83.797 2.78138 78.0992 7.11235 73.7682L80.1734 0.707107L96.0138 16.5474L22.9527 89.6085L22.8062 89.755V89.9621V168.737V169.237H23.3062H102.081ZM156.152 52.4052H155.945L155.799 52.5511L82.5046 125.613L66.6632 109.772L139.482 36.7207C139.484 36.7191 139.486 36.7175 139.487 36.7158C143.83 32.6038 149.534 30.0989 155.686 30.0989H216.049C240.665 30.0989 257.5 49.8713 257.5 74.5799V131.68C257.5 137.845 255.219 143.543 250.888 147.874L177.829 220.933L162.217 205.097L235.28 132.034L235.427 131.887V131.68V52.9052V52.4052H234.927H156.152Z" stroke="#ECECEC"/>
</svg>
