<svg width="258" height="223" viewBox="0 0 258 223" fill="none" xmlns="http://www.w3.org/2000/svg">
<path d="M80.1734 0.678955L6.75879 74.0936C2.33061 78.5218 0 84.3483 0 90.641V147.741C0 172.679 17.0136 192.722 41.9512 192.722H102.314C108.607 192.722 114.434 190.159 118.862 185.964L192.276 112.549L175.729 96.0014L102.081 169.416H23.3062V90.641L96.7209 17.2264L80.1734 0.678955Z" fill="white"/>
<path d="M177.827 222.321L251.241 148.907C255.669 144.478 258 138.652 258 132.359V75.2589C258 50.3212 240.986 30.2779 216.049 30.2779H155.686C149.393 30.2779 143.566 32.8416 139.138 37.0367L65.9566 110.451L82.5041 126.999L156.152 53.5841H234.927V132.359L161.512 205.774L177.827 222.321Z" fill="white"/>
</svg>
