<svg width="258" height="254" viewBox="0 0 258 254" fill="none" xmlns="http://www.w3.org/2000/svg">
<path d="M231.795 43.4923L152.171 122.984L134.592 105.463L214.047 26.1407L214.902 25.2868H213.694H134.412V0.5H211.467C238.552 0.5 257.5 22.4088 257.5 49.7685V123.277H232.648V43.8461V42.6404L231.795 43.4923ZM94.6174 119.119H95.8266L94.9705 118.265L7.86276 31.3762C12.1456 23.9813 18.3512 18.0477 26.0093 14.2724L46.9556 35.166L46.9563 35.1667L112.619 100.407L112.62 100.407L125.545 113.3L125.57 113.325L125.598 113.346L126.604 114.099L144.933 132.382L144.934 132.382L220.162 207.679L220.162 207.68L240.485 227.951C240.47 227.994 240.46 228.034 240.454 228.067C236.678 235.816 230.935 242.093 223.943 246.656L205.1 227.86L205.099 227.859L139.436 162.103L138.582 161.248V162.457V253.5H113.731V162.457V161.252L112.878 162.103L26.0093 248.753C18.3512 244.977 12.1456 239.044 7.86276 231.649L94.9705 144.76L95.8266 143.906H94.6174H0.5V119.119H94.6174Z" stroke="#ECECEC"/>
</svg>
